<svg width="123" height="130" viewBox="0 0 123 130" fill="none" xmlns="http://www.w3.org/2000/svg">
<rect x="1.5" y="1.5" width="119.496" height="127" rx="8.5" fill="#9D3E20" stroke="#9D3E20" stroke-width="3"/>
<g clip-path="url(#clip0_299_659)">
<path d="M66.4305 32V42.5H76.3244V49.5H66.4305V60H59.8346V49.5H49.9407V42.5H59.8346V32H66.4305ZM82.9204 46.7C82.9204 33.995 74.1808 25 63.1326 25C52.0843 25 43.3447 33.995 43.3447 46.7C43.3447 54.89 49.7758 65.74 63.1326 78.69C76.4893 65.74 82.9204 54.89 82.9204 46.7ZM63.1326 18C76.984 18 89.5163 29.27 89.5163 46.7C89.5163 58.32 80.7107 72.075 63.1326 88C45.5544 72.075 36.7488 58.32 36.7488 46.7C36.7488 29.27 49.2811 18 63.1326 18Z" fill="white"/>
</g>
<path d="M49.2636 112.48C48.6936 112.48 48.1536 112.4 47.6436 112.24C47.1336 112.09 46.6786 111.865 46.2786 111.565C45.8886 111.265 45.5786 110.9 45.3486 110.47C45.1286 110.05 45.0186 109.565 45.0186 109.015C45.0186 108.775 45.0386 108.52 45.0786 108.25C45.1286 107.97 45.1986 107.675 45.2886 107.365C45.3886 107.045 45.5086 106.71 45.6486 106.36L46.7286 106.78C46.6286 107.06 46.5386 107.325 46.4586 107.575C46.3886 107.825 46.3336 108.06 46.2936 108.28C46.2636 108.5 46.2486 108.71 46.2486 108.91C46.2486 109.42 46.3836 109.85 46.6536 110.2C46.9336 110.55 47.3036 110.81 47.7636 110.98C48.2336 111.16 48.7486 111.25 49.3086 111.25C49.9886 111.25 50.5586 111.17 51.0186 111.01C51.4786 110.86 51.8436 110.655 52.1136 110.395C52.3836 110.145 52.5736 109.865 52.6836 109.555C52.8036 109.245 52.8636 108.93 52.8636 108.61C52.8636 108.17 52.8286 107.755 52.7586 107.365C52.6986 106.975 52.6136 106.595 52.5036 106.225C52.4036 105.845 52.2936 105.46 52.1736 105.07L53.3886 104.74C53.4986 105.12 53.5836 105.43 53.6436 105.67C53.7036 105.9 53.7486 106.085 53.7786 106.225C53.8186 106.365 53.8536 106.49 53.8836 106.6C53.9936 106.97 54.1186 107.245 54.2586 107.425C54.4086 107.595 54.5786 107.71 54.7686 107.77C54.9686 107.82 55.1936 107.845 55.4436 107.845C55.6436 107.845 55.8186 107.82 55.9686 107.77C56.1286 107.72 56.2736 107.6 56.4036 107.41C56.5436 107.22 56.6636 106.915 56.7636 106.495C56.8736 106.075 56.9736 105.5 57.0636 104.77L58.2036 104.98C58.1736 105.16 58.1386 105.38 58.0986 105.64C58.0586 105.9 58.0186 106.16 57.9786 106.42C57.9486 106.67 57.9336 106.88 57.9336 107.05C57.9336 107.19 57.9636 107.325 58.0236 107.455C58.0936 107.575 58.2236 107.67 58.4136 107.74C58.6136 107.81 58.9086 107.845 59.2986 107.845C59.6086 107.845 59.8736 107.825 60.0936 107.785C60.3236 107.735 60.4986 107.62 60.6186 107.44C60.7486 107.25 60.8136 106.955 60.8136 106.555C60.8136 106.305 60.7736 106.01 60.6936 105.67C60.6136 105.32 60.5086 104.95 60.3786 104.56C60.2486 104.17 60.1086 103.785 59.9586 103.405L61.1736 102.955C61.3036 103.275 61.4236 103.64 61.5336 104.05C61.6536 104.46 61.7536 104.865 61.8336 105.265C61.9136 105.665 61.9536 106.015 61.9536 106.315C61.9536 106.825 61.8836 107.255 61.7436 107.605C61.6136 107.955 61.4286 108.24 61.1886 108.46C60.9486 108.68 60.6636 108.84 60.3336 108.94C60.0136 109.03 59.6636 109.075 59.2836 109.075C58.9336 109.075 58.6286 109.045 58.3686 108.985C58.1186 108.925 57.9036 108.835 57.7236 108.715C57.5536 108.585 57.4186 108.425 57.3186 108.235C57.2286 108.035 57.1636 107.805 57.1236 107.545H57.6336C57.4736 107.905 57.2936 108.2 57.0936 108.43C56.8936 108.65 56.6536 108.815 56.3736 108.925C56.1036 109.025 55.7686 109.075 55.3686 109.075C55.0586 109.075 54.7936 109.035 54.5736 108.955C54.3536 108.865 54.1686 108.755 54.0186 108.625C53.8786 108.485 53.7686 108.33 53.6886 108.16C53.6086 107.98 53.5486 107.8 53.5086 107.62L54.1236 108.385C54.0736 108.865 53.9636 109.345 53.7936 109.825C53.6336 110.305 53.3736 110.745 53.0136 111.145C52.6636 111.555 52.1836 111.88 51.5736 112.12C50.9636 112.36 50.1936 112.48 49.2636 112.48ZM62.7634 112.45L62.3284 111.31C63.3384 110.99 64.1134 110.605 64.6534 110.155C65.2034 109.715 65.5784 109.255 65.7784 108.775C65.9884 108.295 66.0934 107.835 66.0934 107.395C66.0934 107.115 66.0634 106.845 66.0034 106.585C65.9434 106.325 65.8384 106.03 65.6884 105.7C65.5384 105.37 65.3284 104.96 65.0584 104.47L66.1534 103.915C66.5334 104.565 66.8034 105.18 66.9634 105.76C67.1334 106.34 67.2184 106.85 67.2184 107.29C67.2184 107.92 67.1134 108.49 66.9034 109C66.7034 109.51 66.4334 109.96 66.0934 110.35C65.7634 110.75 65.3984 111.09 64.9984 111.37C64.6084 111.65 64.2134 111.88 63.8134 112.06C63.4234 112.24 63.0734 112.37 62.7634 112.45ZM68.7362 108.325L69.3362 107.29C69.5362 107.42 69.8162 107.545 70.1762 107.665C70.5362 107.785 70.9562 107.845 71.4362 107.845C71.9362 107.845 72.3312 107.795 72.6212 107.695C72.9212 107.595 73.1362 107.45 73.2662 107.26C73.4062 107.06 73.4762 106.83 73.4762 106.57C73.4762 106.37 73.4312 106.125 73.3412 105.835C73.2612 105.535 73.0812 105.135 72.8012 104.635C72.5212 104.125 72.0912 103.46 71.5112 102.64L72.5462 101.965C73.0762 102.695 73.4962 103.355 73.8062 103.945C74.1262 104.535 74.3512 105.055 74.4812 105.505C74.6212 105.945 74.6912 106.325 74.6912 106.645C74.6912 107.045 74.5912 107.435 74.3912 107.815C74.1912 108.185 73.8562 108.49 73.3862 108.73C72.9162 108.97 72.2662 109.09 71.4362 109.09C71.0762 109.09 70.7262 109.06 70.3862 109C70.0562 108.94 69.7512 108.855 69.4712 108.745C69.1912 108.625 68.9462 108.485 68.7362 108.325ZM76.6946 109L76.4396 99.34H77.6546L77.9096 109H76.6946ZM78.0446 97.885C77.7446 97.885 77.4746 97.835 77.2346 97.735C76.9946 97.625 76.7746 97.52 76.5746 97.42C76.3746 97.32 76.1896 97.27 76.0196 97.27C75.8396 97.27 75.6746 97.315 75.5246 97.405C75.3846 97.495 75.2346 97.62 75.0746 97.78L74.5046 97.3C74.7346 97.01 74.9746 96.785 75.2246 96.625C75.4746 96.455 75.7396 96.37 76.0196 96.37C76.2696 96.37 76.4996 96.42 76.7096 96.52C76.9196 96.62 77.1296 96.72 77.3396 96.82C77.5596 96.92 77.7946 96.97 78.0446 96.97C78.2046 96.97 78.3546 96.945 78.4946 96.895C78.6346 96.835 78.8046 96.745 79.0046 96.625L79.4396 97.24C79.1196 97.52 78.8446 97.7 78.6146 97.78C78.3946 97.85 78.2046 97.885 78.0446 97.885Z" fill="white"/>
<defs>
<clipPath id="clip0_299_659">
<rect width="79.1513" height="84" fill="white" transform="translate(23.5569 11)"/>
</clipPath>
</defs>
</svg>
