<svg width="123" height="130" viewBox="0 0 123 130" fill="none" xmlns="http://www.w3.org/2000/svg">
<rect x="1.5" y="1.5" width="119.496" height="127" rx="8.5" fill="white" stroke="#9D3E20" stroke-width="3"/>
<path fill-rule="evenodd" clip-rule="evenodd" d="M72.7383 15.5222C72.3375 14.0318 70.2228 14.0316 69.8219 15.5222L66.4467 28.0737L57.7449 25.6223C56.4023 25.2441 55.3083 26.7329 56.0711 27.9012L58.0855 30.9866C56.6016 30.2376 54.9794 29.7431 53.2106 29.6824C52.2437 29.6492 51.2238 29.6897 50.1505 29.8163C44.629 30.4673 41.0078 32.4585 38.8061 35.3352C36.6324 38.1752 36.025 41.6439 36.0244 44.8933L36.0244 44.9188C36.0241 46.1681 36.0229 51.293 37.255 55.2248C38.5144 59.2439 39.5184 61.536 40.3679 63.4753L40.3679 63.4753C40.6436 64.1045 40.9029 64.6966 41.1494 65.2984C42.1387 67.7136 43.0388 70.5357 44.1902 77.2547C44.3836 78.486 44.8374 81.3181 45.7993 83.7551C46.2779 84.9677 46.9357 86.2254 47.8627 87.1341C48.8436 88.0957 50.1837 88.7048 51.8018 88.3614C53.0293 88.1008 53.9582 87.2711 54.6502 86.3348C55.3481 85.3906 55.9171 84.1897 56.3951 82.89C57.3527 80.2862 58.0531 76.9794 58.6078 73.7518C58.9818 71.5761 59.2996 69.3716 59.5831 67.4043C59.6993 66.5982 59.8098 65.8318 59.916 65.1236C60.0983 66.1418 60.2847 67.2618 60.4734 68.3961C60.867 70.7622 61.271 73.1902 61.6702 74.885C62.6326 78.9703 63.7212 82.4578 64.9754 84.8301C65.5975 86.0066 66.3297 87.0452 67.2223 87.717C68.1835 88.4405 69.3658 88.7499 70.6145 88.3082C71.8594 87.8678 72.6532 86.7727 73.1824 85.7331C73.7337 84.6501 74.1525 83.318 74.4978 81.9536C74.8462 80.5775 75.1397 79.0853 75.4141 77.6588L75.4977 77.2232C75.744 75.9395 75.977 74.7256 76.2305 73.6493L76.2542 73.5488L76.2639 73.4461C76.8283 67.4562 78.2984 62.9628 79.7722 58.8316C79.9191 58.4198 80.0667 58.0101 80.2139 57.6015L80.214 57.6014C81.3997 54.3103 82.5578 51.0957 83.0908 47.5111L87.9984 48.8166C89.455 49.2041 90.5177 47.453 89.5021 46.3397L80.9432 36.9574L95.5481 23.2476C96.7653 22.1051 95.5024 20.1244 93.9532 20.745L76.0692 27.9087L72.7383 15.5222ZM80.1713 46.7345L76.0008 45.6251L72.6995 54.7212C72.2181 56.0476 70.3421 56.0477 69.8607 54.7212L66.5932 45.7179L52.0178 50.6999C50.5103 51.2151 49.3354 49.347 50.4535 48.2115L61.3216 37.1754C58.8013 34.6812 56.1386 32.7847 53.1077 32.6806C52.2971 32.6528 51.4291 32.6863 50.5018 32.7956C45.5474 33.3798 42.7683 35.0943 41.1884 37.1585C39.5805 39.2594 39.025 41.9668 39.0244 44.8939C39.0242 46.1611 39.0356 50.8745 40.1177 54.3278C41.3237 58.1763 42.2465 60.2836 43.0867 62.2022L43.0868 62.2024C43.3733 62.8568 43.6503 63.4892 43.9256 64.1613C45.0246 66.8443 45.9734 69.8962 47.1489 76.7584L47.1506 76.7687L47.1523 76.779C47.3478 78.0238 47.7623 80.5572 48.5898 82.6536C49.0072 83.7112 49.4764 84.515 49.9629 84.9919C50.3955 85.4159 50.7553 85.5167 51.1789 85.4267C51.4065 85.3784 51.7719 85.1818 52.2376 84.5517C52.6974 83.9296 53.1494 83.024 53.5795 81.8545C54.4381 79.5199 55.1023 76.4373 55.6512 73.2436C56.0187 71.1056 56.3247 68.9816 56.6049 67.0369L56.6049 67.0366L56.605 67.0366C56.7436 66.0741 56.876 65.1556 57.0063 64.301C57.2 63.0312 57.391 61.8929 57.5911 61.006C57.6908 60.564 57.8005 60.1494 57.9255 59.7964C58.0323 59.4949 58.215 59.0408 58.5466 58.6889C58.8322 58.3857 59.3984 58.0025 60.1551 58.1562C60.7753 58.2822 61.1326 58.7061 61.278 58.9014C61.592 59.3232 61.7979 59.8987 61.945 60.3766C62.266 61.42 62.5705 62.9314 62.8607 64.5482C63.064 65.6809 63.2628 66.8772 63.4591 68.0581L63.4592 68.0586C63.8412 70.3572 64.2135 72.5975 64.5903 74.1972C65.5403 78.2299 66.5599 81.4084 67.6276 83.4278C68.1665 84.4472 68.6488 85.0359 69.0263 85.32C69.3353 85.5526 69.4788 85.5277 69.614 85.4799C69.7528 85.4308 70.0874 85.2001 70.5089 84.3722C70.9083 83.5875 71.2623 82.5102 71.5896 81.2174C71.9138 79.9364 72.1927 78.5238 72.4681 77.0922L72.5524 76.6529C72.7891 75.4191 73.0271 74.178 73.2868 73.0622C73.8935 66.7504 75.4539 62.0078 76.9466 57.8235C77.0934 57.4122 77.2388 57.0077 77.3823 56.6089C78.6237 53.1567 79.7136 50.1258 80.1713 46.7345ZM68.9522 30.3089L71.2801 21.652L73.6078 30.3078C73.8427 31.1814 74.7878 31.6538 75.6275 31.3174L87.7344 26.4678L77.819 35.7754C77.2172 36.3403 77.1804 37.284 77.7369 37.894L83.8663 44.6131L75.4537 42.3752C74.6977 42.1741 73.9131 42.5837 73.6461 43.3193L71.2801 49.8385L68.9144 43.3199C68.6336 42.5465 67.7853 42.14 67.0066 42.4062L57.0191 45.82L64.785 37.934C65.2832 37.4281 65.3616 36.6435 64.9735 36.049L60.7544 29.5869L67.0845 31.3702C67.8941 31.5983 68.7338 31.121 68.9522 30.3089Z" fill="#9D3E20"/>
<path d="M45.5104 100.85L45.0294 100.122C45.3674 99.914 45.7704 99.667 46.2384 99.381C46.7151 99.095 47.2611 98.7787 47.8764 98.432C48.4917 98.0853 49.1721 97.717 49.9174 97.327L50.2814 98.12C49.5274 98.5187 48.8557 98.8827 48.2664 99.212C47.6857 99.5413 47.1701 99.8403 46.7194 100.109C46.2687 100.378 45.8657 100.625 45.5104 100.85ZM44.5744 108.273L44.9124 107.207C45.7271 107.207 46.4074 107.177 46.9534 107.116C47.4994 107.047 47.9327 106.96 48.2534 106.856C48.5741 106.743 48.8037 106.626 48.9424 106.505C49.0811 106.384 49.1504 106.271 49.1504 106.167C49.1504 105.959 49.0724 105.729 48.9164 105.478C48.7604 105.227 48.5611 104.971 48.3184 104.711C48.0757 104.442 47.8157 104.178 47.5384 103.918C47.2697 103.658 47.0141 103.42 46.7714 103.203C46.5287 102.986 46.3294 102.8 46.1734 102.644C46.0174 102.479 45.9394 102.362 45.9394 102.293C45.9394 102.163 45.9481 102.037 45.9654 101.916C45.9914 101.795 46.0217 101.682 46.0564 101.578C46.0997 101.474 46.1517 101.392 46.2124 101.331C46.4464 101.08 46.7887 100.82 47.2394 100.551C47.6987 100.274 48.2231 99.992 48.8124 99.706C49.4017 99.4113 50.0041 99.1123 50.6194 98.809L51.0614 99.771C50.5067 100.048 49.9521 100.321 49.3974 100.59C48.8514 100.859 48.3357 101.127 47.8504 101.396C47.3737 101.656 46.9491 101.929 46.5764 102.215L46.6544 101.773C47.0444 102.102 47.4127 102.419 47.7594 102.722C48.1061 103.025 48.4354 103.337 48.7474 103.658C49.0594 103.97 49.3497 104.308 49.6184 104.672C49.8871 105.036 50.1384 105.439 50.3724 105.881C50.5024 106.132 50.6541 106.336 50.8274 106.492C51.0094 106.639 51.1914 106.752 51.3734 106.83C51.5554 106.899 51.7287 106.947 51.8934 106.973C52.0581 106.99 52.1967 106.999 52.3094 106.999C52.4914 106.999 52.6214 107.051 52.6994 107.155C52.7861 107.25 52.8294 107.367 52.8294 107.506C52.8294 107.645 52.7687 107.775 52.6474 107.896C52.5261 108.009 52.3701 108.065 52.1794 108.065C51.9454 108.065 51.6681 108.03 51.3474 107.961C51.0354 107.883 50.7277 107.736 50.4244 107.519C50.1211 107.302 49.8697 106.973 49.6704 106.531L50.0604 106.687C49.9304 106.921 49.7527 107.133 49.5274 107.324C49.3021 107.515 48.9857 107.684 48.5784 107.831C48.1797 107.97 47.6554 108.078 47.0054 108.156C46.3641 108.234 45.5537 108.273 44.5744 108.273ZM44.5744 108.273C43.8031 108.273 43.1227 108.221 42.5334 108.117C41.9527 108.022 41.4674 107.87 41.0774 107.662C40.6874 107.454 40.3927 107.185 40.1934 106.856C39.9941 106.518 39.8944 106.111 39.8944 105.634C39.8944 105.417 39.9117 105.196 39.9464 104.971C39.9811 104.737 40.0244 104.503 40.0764 104.269C40.1371 104.035 40.1977 103.81 40.2584 103.593L41.2334 103.84C41.1987 103.97 41.1597 104.126 41.1164 104.308C41.0731 104.481 41.0341 104.659 40.9994 104.841C40.9734 105.023 40.9604 105.188 40.9604 105.335C40.9604 105.786 41.0731 106.15 41.2984 106.427C41.5324 106.696 41.9354 106.895 42.5074 107.025C43.0794 107.146 43.8811 107.207 44.9124 107.207L45.1724 107.857L44.5744 108.273ZM52.1743 108.065L52.3043 106.999C52.6683 106.999 52.9543 106.969 53.1623 106.908C53.3703 106.839 53.5263 106.713 53.6303 106.531C53.743 106.34 53.8383 106.067 53.9163 105.712C53.9943 105.357 54.0896 104.893 54.2023 104.321L55.2163 104.516C55.1816 104.672 55.1426 104.845 55.0993 105.036C55.056 105.227 55.017 105.417 54.9823 105.608C54.9563 105.79 54.9433 105.95 54.9433 106.089C54.9433 106.262 54.9823 106.418 55.0603 106.557C55.1383 106.696 55.3073 106.804 55.5673 106.882C55.8273 106.96 56.226 106.999 56.7633 106.999C56.9453 106.999 57.0753 107.051 57.1533 107.155C57.24 107.25 57.2833 107.367 57.2833 107.506C57.2833 107.645 57.2226 107.775 57.1013 107.896C56.98 108.009 56.824 108.065 56.6333 108.065C56.07 108.065 55.628 108.017 55.3073 107.922C54.9866 107.818 54.7526 107.666 54.6053 107.467C54.458 107.259 54.3583 107.008 54.3063 106.713L54.6963 106.739C54.5576 107.016 54.406 107.242 54.2413 107.415C54.0853 107.588 53.912 107.723 53.7213 107.818C53.5306 107.913 53.3096 107.978 53.0583 108.013C52.807 108.048 52.5123 108.065 52.1743 108.065ZM54.2023 102.982C54.0203 102.982 53.8643 102.921 53.7343 102.8C53.613 102.67 53.5523 102.518 53.5523 102.345C53.5523 102.172 53.613 102.02 53.7343 101.89C53.8643 101.76 54.0203 101.695 54.2023 101.695C54.3756 101.695 54.523 101.76 54.6443 101.89C54.7743 102.02 54.8393 102.172 54.8393 102.345C54.8393 102.518 54.7743 102.67 54.6443 102.8C54.523 102.921 54.3756 102.982 54.2023 102.982ZM56.6304 108.065L56.7604 106.999C57.1937 106.999 57.5317 106.969 57.7744 106.908C58.017 106.839 58.199 106.713 58.3204 106.531C58.4504 106.34 58.5544 106.067 58.6324 105.712C58.7104 105.357 58.8057 104.893 58.9184 104.321L59.9324 104.516C59.8977 104.672 59.8587 104.845 59.8154 105.036C59.772 105.227 59.733 105.417 59.6984 105.608C59.6724 105.79 59.6594 105.95 59.6594 106.089C59.6594 106.219 59.668 106.34 59.6854 106.453C59.7027 106.566 59.7677 106.661 59.8804 106.739C59.993 106.817 60.1837 106.882 60.4524 106.934C60.721 106.977 61.1067 106.999 61.6094 106.999C61.7914 106.999 61.9214 107.051 61.9994 107.155C62.086 107.25 62.1294 107.367 62.1294 107.506C62.1294 107.645 62.0687 107.775 61.9474 107.896C61.826 108.009 61.67 108.065 61.4794 108.065C60.9507 108.065 60.5304 108.039 60.2184 107.987C59.9064 107.926 59.668 107.84 59.5034 107.727C59.3474 107.614 59.2347 107.476 59.1654 107.311C59.1047 107.138 59.057 106.938 59.0224 106.713L59.4124 106.739C59.2737 107.016 59.122 107.242 58.9574 107.415C58.8014 107.588 58.6194 107.723 58.4114 107.818C58.2034 107.913 57.952 107.978 57.6574 108.013C57.3714 108.048 57.029 108.065 56.6304 108.065ZM59.9064 110.522C59.7244 110.522 59.5684 110.457 59.4384 110.327C59.317 110.206 59.2564 110.058 59.2564 109.885C59.2564 109.712 59.317 109.56 59.4384 109.43C59.5684 109.3 59.7244 109.235 59.9064 109.235C60.0797 109.235 60.227 109.3 60.3484 109.43C60.4784 109.56 60.5434 109.712 60.5434 109.885C60.5434 110.058 60.4784 110.206 60.3484 110.327C60.227 110.457 60.0797 110.522 59.9064 110.522ZM58.1254 110.522C57.9434 110.522 57.7874 110.457 57.6574 110.327C57.536 110.206 57.4754 110.058 57.4754 109.885C57.4754 109.712 57.536 109.56 57.6574 109.43C57.7874 109.3 57.9434 109.235 58.1254 109.235C58.2987 109.235 58.446 109.3 58.5674 109.43C58.6974 109.56 58.7624 109.712 58.7624 109.885C58.7624 110.058 58.6974 110.206 58.5674 110.327C58.446 110.457 58.2987 110.522 58.1254 110.522ZM69.761 108.065C69.397 108.065 69.0633 108.043 68.76 108C68.4566 107.948 68.1836 107.857 67.941 107.727C67.6983 107.597 67.4946 107.411 67.33 107.168C67.1653 106.917 67.0396 106.587 66.953 106.18L67.72 105.725C67.8326 106.072 67.9713 106.336 68.136 106.518C68.3006 106.7 68.5216 106.826 68.799 106.895C69.085 106.964 69.449 106.999 69.891 106.999C70.073 106.999 70.203 107.051 70.281 107.155C70.3676 107.25 70.411 107.367 70.411 107.506C70.411 107.645 70.3503 107.775 70.229 107.896C70.1076 108.009 69.9516 108.065 69.761 108.065ZM61.48 108.065L61.597 106.999C62.0476 106.999 62.4896 106.964 62.923 106.895C63.3563 106.826 63.781 106.726 64.197 106.596C64.613 106.466 65.0116 106.31 65.393 106.128C65.783 105.937 66.1513 105.721 66.498 105.478C66.2726 105.279 66.0126 105.105 65.718 104.958C65.4233 104.811 65.0983 104.698 64.743 104.62C64.3963 104.533 64.028 104.49 63.638 104.49C63.4993 104.49 63.3693 104.494 63.248 104.503C63.1266 104.512 63.0053 104.529 62.884 104.555C62.7626 104.572 62.624 104.598 62.468 104.633L62.26 103.645C62.494 103.576 62.728 103.524 62.962 103.489C63.196 103.446 63.4213 103.424 63.638 103.424C64.0886 103.424 64.496 103.48 64.86 103.593C65.224 103.697 65.5533 103.827 65.848 103.983C66.1513 104.139 66.433 104.295 66.693 104.451C66.9616 104.607 67.2216 104.741 67.473 104.854C67.7243 104.958 67.9843 105.01 68.253 105.01H68.526L68.617 105.946C68.2443 105.946 67.902 105.998 67.59 106.102C67.278 106.206 66.9703 106.34 66.667 106.505C66.3723 106.661 66.0603 106.83 65.731 107.012C65.4016 107.185 65.0376 107.354 64.639 107.519C64.2403 107.675 63.781 107.805 63.261 107.909C62.7496 108.013 62.156 108.065 61.48 108.065ZM64.86 111.9C64.6866 111.9 64.535 111.835 64.405 111.705C64.2836 111.575 64.223 111.423 64.223 111.25C64.223 111.077 64.2836 110.925 64.405 110.795C64.535 110.674 64.6866 110.613 64.86 110.613C65.042 110.613 65.1936 110.674 65.315 110.795C65.445 110.925 65.51 111.077 65.51 111.25C65.51 111.423 65.445 111.575 65.315 111.705C65.1936 111.835 65.042 111.9 64.86 111.9ZM65.744 110.47C65.5706 110.47 65.419 110.405 65.289 110.275C65.1676 110.145 65.107 109.993 65.107 109.82C65.107 109.647 65.1676 109.495 65.289 109.365C65.419 109.244 65.5706 109.183 65.744 109.183C65.926 109.183 66.0776 109.244 66.199 109.365C66.329 109.495 66.394 109.647 66.394 109.82C66.394 109.993 66.329 110.145 66.199 110.275C66.0776 110.405 65.926 110.47 65.744 110.47ZM63.976 110.47C63.8026 110.47 63.651 110.405 63.521 110.275C63.3996 110.145 63.339 109.993 63.339 109.82C63.339 109.647 63.3996 109.495 63.521 109.365C63.651 109.244 63.8026 109.183 63.976 109.183C64.158 109.183 64.3096 109.244 64.431 109.365C64.561 109.495 64.626 109.647 64.626 109.82C64.626 109.993 64.561 110.145 64.431 110.275C64.3096 110.405 64.158 110.47 63.976 110.47ZM69.7573 108.065L69.8873 106.999C70.3207 106.999 70.6587 106.969 70.9013 106.908C71.144 106.839 71.326 106.713 71.4473 106.531C71.5773 106.34 71.6813 106.067 71.7593 105.712C71.8373 105.357 71.9327 104.893 72.0453 104.321L73.0593 104.516C73.0247 104.672 72.9857 104.845 72.9423 105.036C72.899 105.227 72.86 105.417 72.8253 105.608C72.7993 105.79 72.7863 105.95 72.7863 106.089C72.7863 106.219 72.795 106.34 72.8123 106.453C72.8297 106.566 72.8947 106.661 73.0073 106.739C73.12 106.817 73.3107 106.882 73.5793 106.934C73.848 106.977 74.2337 106.999 74.7363 106.999C74.9183 106.999 75.0483 107.051 75.1263 107.155C75.213 107.25 75.2563 107.367 75.2563 107.506C75.2563 107.645 75.1957 107.775 75.0743 107.896C74.953 108.009 74.797 108.065 74.6063 108.065C74.0777 108.065 73.6573 108.039 73.3453 107.987C73.0333 107.926 72.795 107.84 72.6303 107.727C72.4743 107.614 72.3617 107.476 72.2923 107.311C72.2317 107.138 72.184 106.938 72.1493 106.713L72.5393 106.739C72.4007 107.016 72.249 107.242 72.0843 107.415C71.9283 107.588 71.7463 107.723 71.5383 107.818C71.3303 107.913 71.079 107.978 70.7843 108.013C70.4983 108.048 70.156 108.065 69.7573 108.065ZM73.0333 110.522C72.8513 110.522 72.6953 110.457 72.5653 110.327C72.444 110.206 72.3833 110.058 72.3833 109.885C72.3833 109.712 72.444 109.56 72.5653 109.43C72.6953 109.3 72.8513 109.235 73.0333 109.235C73.2067 109.235 73.354 109.3 73.4753 109.43C73.6053 109.56 73.6703 109.712 73.6703 109.885C73.6703 110.058 73.6053 110.206 73.4753 110.327C73.354 110.457 73.2067 110.522 73.0333 110.522ZM71.2523 110.522C71.0703 110.522 70.9143 110.457 70.7843 110.327C70.663 110.206 70.6023 110.058 70.6023 109.885C70.6023 109.712 70.663 109.56 70.7843 109.43C70.9143 109.3 71.0703 109.235 71.2523 109.235C71.4257 109.235 71.573 109.3 71.6943 109.43C71.8243 109.56 71.8893 109.712 71.8893 109.885C71.8893 110.058 71.8243 110.206 71.6943 110.327C71.573 110.457 71.4257 110.522 71.2523 110.522ZM74.6069 108.065L74.7239 106.999C75.2179 106.999 75.5646 106.951 75.7639 106.856C75.9633 106.761 76.0759 106.592 76.1019 106.349C76.1366 106.106 76.1453 105.768 76.1279 105.335L75.9069 98.718H76.9859L77.1939 105.309C77.2113 105.751 77.2806 106.098 77.4019 106.349C77.5319 106.592 77.7053 106.761 77.9219 106.856C78.1386 106.951 78.3769 106.999 78.6369 106.999C78.8189 106.999 78.9489 107.051 79.0269 107.155C79.1136 107.25 79.1569 107.367 79.1569 107.506C79.1569 107.645 79.0963 107.775 78.9749 107.896C78.8536 108.009 78.6976 108.065 78.5069 108.065C78.1429 108.065 77.8396 108.009 77.5969 107.896C77.3629 107.775 77.1766 107.623 77.0379 107.441C76.9079 107.25 76.8213 107.051 76.7779 106.843L77.0509 106.869C76.9643 107.129 76.8213 107.35 76.6219 107.532C76.4313 107.705 76.1713 107.84 75.8419 107.935C75.5126 108.022 75.1009 108.065 74.6069 108.065ZM78.5044 108.065L78.6344 106.999C79.0591 106.999 79.3971 106.973 79.6484 106.921C79.8997 106.869 80.0817 106.765 80.1944 106.609C80.3071 106.444 80.3634 106.202 80.3634 105.881C80.3634 105.664 80.3287 105.409 80.2594 105.114C80.1901 104.811 80.0991 104.49 79.9864 104.152C79.8737 103.814 79.7524 103.48 79.6224 103.151L80.6754 102.761C80.7881 103.038 80.8921 103.355 80.9874 103.71C81.0914 104.065 81.1781 104.416 81.2474 104.763C81.3167 105.11 81.3514 105.413 81.3514 105.673C81.3514 106.02 81.3124 106.327 81.2344 106.596C81.1651 106.856 81.0567 107.081 80.9094 107.272C80.7621 107.454 80.5714 107.606 80.3374 107.727C80.1121 107.84 79.8477 107.926 79.5444 107.987C79.2411 108.039 78.8944 108.065 78.5044 108.065ZM79.8954 110.483C79.7134 110.483 79.5574 110.418 79.4274 110.288C79.3061 110.167 79.2454 110.019 79.2454 109.846C79.2454 109.673 79.3061 109.521 79.4274 109.391C79.5574 109.261 79.7134 109.196 79.8954 109.196C80.0687 109.196 80.2161 109.261 80.3374 109.391C80.4674 109.521 80.5324 109.673 80.5324 109.846C80.5324 110.019 80.4674 110.167 80.3374 110.288C80.2161 110.418 80.0687 110.483 79.8954 110.483Z" fill="#9D3E20"/>
</svg>
