<svg width="123" height="130" viewBox="0 0 123 130" fill="none" xmlns="http://www.w3.org/2000/svg">
<rect x="-0.0078125" width="122.496" height="130" rx="10" fill="#4C4C4C" fill-opacity="0.75"/>
<path d="M31.296 90.5892L25.0505 79.6132C24.847 79.2555 24.8834 78.8097 25.1422 78.4898L50.8165 46.7466C51.2636 46.1939 52.1285 46.271 52.4706 46.8942L69.5244 77.956C69.8272 78.5075 69.5515 79.1983 68.9522 79.3898L32.4695 91.0472C32.0193 91.1911 31.5298 91 31.296 90.5892Z" stroke="white" stroke-width="5"/>
<path d="M62.0835 43.1178L67.2908 34.4707" stroke="white" stroke-width="5" stroke-linecap="round"/>
<path d="M81.8714 49.9356L90.4613 46.9167" stroke="white" stroke-width="5" stroke-linecap="round"/>
<path d="M73.5395 42.6235L84.7937 30.8248" stroke="white" stroke-width="5" stroke-linecap="round"/>
<path d="M71.4568 66.3854L90.7493 62.356" stroke="white" stroke-width="5" stroke-linecap="round"/>
<ellipse cx="56.8759" cy="28.2941" rx="2.08293" ry="2.47059" fill="white"/>
<ellipse cx="98.5345" cy="53" rx="4.16586" ry="4.94118" fill="white"/>
<ellipse cx="82.913" cy="76.4705" rx="3.1244" ry="3.70588" fill="white"/>
<path d="M71.4561 48.0588L72.3914 51.4731H75.4181L72.9695 53.5832L73.9048 56.9975L71.4561 54.8874L69.0075 56.9975L69.9428 53.5832L67.4942 51.4731H70.5208L71.4561 48.0588Z" fill="white"/>
<path d="M76.6643 11L78.301 16.975H83.5977L79.3126 20.6677L80.9494 26.6427L76.6643 22.9499L72.3792 26.6427L74.0159 20.6677L69.7308 16.975H75.0275L76.6643 11Z" fill="white"/>
<path d="M14.5428 109.015C14.5428 108.775 14.5628 108.52 14.6028 108.25C14.6528 107.97 14.7228 107.675 14.8128 107.365C14.9128 107.045 15.0328 106.71 15.1728 106.36L16.2528 106.78C16.1528 107.06 16.0628 107.325 15.9828 107.575C15.9128 107.825 15.8578 108.06 15.8178 108.28C15.7878 108.5 15.7728 108.71 15.7728 108.91C15.7728 109.43 15.9078 109.86 16.1778 110.2C16.4478 110.54 16.8178 110.795 17.2878 110.965C17.7578 111.135 18.2878 111.22 18.8778 111.22C19.5478 111.22 20.1078 111.13 20.5578 110.95C21.0178 110.77 21.3828 110.53 21.6528 110.23C21.9228 109.94 22.1128 109.615 22.2228 109.255C22.3428 108.895 22.4028 108.54 22.4028 108.19C22.4028 107.81 22.3278 107.35 22.1778 106.81C22.0378 106.27 21.7728 105.6 21.3828 104.8L22.5078 104.23C22.7078 104.61 22.8878 105.01 23.0478 105.43C23.2178 105.84 23.3528 106.265 23.4528 106.705C23.5628 107.135 23.6178 107.575 23.6178 108.025C23.6178 108.415 23.5678 108.815 23.4678 109.225C23.3778 109.635 23.2228 110.03 23.0028 110.41C22.7828 110.8 22.4878 111.145 22.1178 111.445C21.7578 111.755 21.3078 112 20.7678 112.18C20.2378 112.36 19.6028 112.45 18.8628 112.45C18.2828 112.45 17.7278 112.38 17.1978 112.24C16.6778 112.11 16.2178 111.905 15.8178 111.625C15.4278 111.345 15.1178 110.99 14.8878 110.56C14.6578 110.13 14.5428 109.615 14.5428 109.015ZM19.0728 103.03C18.8628 103.03 18.6828 102.96 18.5328 102.82C18.3928 102.67 18.3228 102.495 18.3228 102.295C18.3228 102.095 18.3928 101.92 18.5328 101.77C18.6828 101.62 18.8628 101.545 19.0728 101.545C19.2728 101.545 19.4428 101.62 19.5828 101.77C19.7328 101.92 19.8078 102.095 19.8078 102.295C19.8078 102.495 19.7328 102.67 19.5828 102.82C19.4428 102.96 19.2728 103.03 19.0728 103.03ZM28.7263 109.075C27.9263 109.075 27.3113 108.985 26.8813 108.805C26.4613 108.625 26.1713 108.345 26.0113 107.965C25.8513 107.585 25.7613 107.095 25.7413 106.495L25.4413 98.29H26.6713L26.9713 106.015C26.9913 106.505 27.0363 106.885 27.1063 107.155C27.1863 107.415 27.3563 107.595 27.6163 107.695C27.8863 107.795 28.3063 107.845 28.8763 107.845C29.0863 107.845 29.2363 107.905 29.3263 108.025C29.4263 108.135 29.4763 108.27 29.4763 108.43C29.4763 108.59 29.4063 108.74 29.2663 108.88C29.1263 109.01 28.9463 109.075 28.7263 109.075ZM28.7266 109.075L28.8766 107.845C29.4666 107.845 29.9266 107.825 30.2566 107.785C30.5866 107.735 30.8216 107.62 30.9616 107.44C31.1016 107.25 31.1716 106.955 31.1716 106.555C31.1716 106.305 31.1316 106.01 31.0516 105.67C30.9716 105.32 30.8666 104.95 30.7366 104.56C30.6066 104.17 30.4666 103.785 30.3166 103.405L31.5316 102.955C31.6616 103.275 31.7816 103.64 31.8916 104.05C32.0116 104.46 32.1116 104.865 32.1916 105.265C32.2716 105.665 32.3116 106.015 32.3116 106.315C32.3116 106.815 32.2416 107.24 32.1016 107.59C31.9716 107.94 31.7616 108.225 31.4716 108.445C31.1816 108.665 30.8066 108.825 30.3466 108.925C29.8966 109.025 29.3566 109.075 28.7266 109.075ZM31.5016 111.91C31.2916 111.91 31.1116 111.835 30.9616 111.685C30.8216 111.545 30.7516 111.375 30.7516 111.175C30.7516 110.975 30.8216 110.8 30.9616 110.65C31.1116 110.5 31.2916 110.425 31.5016 110.425C31.7016 110.425 31.8716 110.5 32.0116 110.65C32.1616 110.8 32.2366 110.975 32.2366 111.175C32.2366 111.375 32.1616 111.545 32.0116 111.685C31.8716 111.835 31.7016 111.91 31.5016 111.91ZM29.4466 111.91C29.2366 111.91 29.0566 111.835 28.9066 111.685C28.7666 111.545 28.6966 111.375 28.6966 111.175C28.6966 110.975 28.7666 110.8 28.9066 110.65C29.0566 110.5 29.2366 110.425 29.4466 110.425C29.6466 110.425 29.8166 110.5 29.9566 110.65C30.1066 110.8 30.1816 110.975 30.1816 111.175C30.1816 111.375 30.1066 111.545 29.9566 111.685C29.8166 111.835 29.6466 111.91 29.4466 111.91ZM33.269 112.48L32.834 111.34C33.564 111.1 34.169 110.825 34.649 110.515C35.139 110.205 35.524 109.875 35.804 109.525C36.094 109.175 36.299 108.82 36.419 108.46C36.539 108.09 36.599 107.735 36.599 107.395C36.599 106.905 36.489 106.41 36.269 105.91C36.059 105.4 35.824 104.92 35.564 104.47L36.659 103.915C36.849 104.265 37.014 104.61 37.154 104.95C37.304 105.29 37.434 105.61 37.544 105.91C37.664 106.21 37.759 106.485 37.829 106.735C37.969 107.165 38.149 107.46 38.369 107.62C38.599 107.77 38.909 107.845 39.299 107.845C39.509 107.845 39.659 107.905 39.749 108.025C39.849 108.135 39.899 108.27 39.899 108.43C39.899 108.59 39.829 108.74 39.689 108.88C39.549 109.01 39.369 109.075 39.149 109.075C38.709 109.075 38.349 109 38.069 108.85C37.799 108.69 37.594 108.485 37.454 108.235C37.314 107.975 37.219 107.705 37.169 107.425L37.649 107.695C37.649 108.355 37.499 108.955 37.199 109.495C36.909 110.045 36.534 110.52 36.074 110.92C35.614 111.33 35.134 111.665 34.634 111.925C34.134 112.185 33.679 112.37 33.269 112.48ZM39.1562 109.075L39.3063 107.845C39.8063 107.845 40.1963 107.81 40.4763 107.74C40.7563 107.66 40.9663 107.515 41.1063 107.305C41.2563 107.085 41.3763 106.77 41.4663 106.36C41.5563 105.95 41.6663 105.415 41.7963 104.755L42.9663 104.98C42.9263 105.16 42.8813 105.36 42.8313 105.58C42.7813 105.8 42.7363 106.02 42.6963 106.24C42.6663 106.45 42.6513 106.635 42.6513 106.795C42.6513 106.945 42.6613 107.085 42.6813 107.215C42.7013 107.345 42.7763 107.455 42.9062 107.545C43.0363 107.635 43.2563 107.71 43.5662 107.77C43.8763 107.82 44.3213 107.845 44.9013 107.845C45.1113 107.845 45.2613 107.905 45.3513 108.025C45.4513 108.135 45.5013 108.27 45.5013 108.43C45.5013 108.59 45.4313 108.74 45.2913 108.88C45.1513 109.01 44.9713 109.075 44.7513 109.075C44.1413 109.075 43.6563 109.045 43.2963 108.985C42.9363 108.915 42.6613 108.815 42.4713 108.685C42.2913 108.555 42.1613 108.395 42.0813 108.205C42.0113 108.005 41.9563 107.775 41.9163 107.515L42.3663 107.545C42.2063 107.865 42.0313 108.125 41.8413 108.325C41.6613 108.525 41.4513 108.68 41.2113 108.79C40.9713 108.9 40.6813 108.975 40.3413 109.015C40.0113 109.055 39.6163 109.075 39.1562 109.075ZM43.1613 103.21C42.9513 103.21 42.7713 103.14 42.6213 103C42.4813 102.85 42.4113 102.675 42.4113 102.475C42.4113 102.275 42.4813 102.1 42.6213 101.95C42.7713 101.8 42.9513 101.725 43.1613 101.725C43.3613 101.725 43.5313 101.8 43.6713 101.95C43.8213 102.1 43.8963 102.275 43.8963 102.475C43.8963 102.675 43.8213 102.85 43.6713 103C43.5313 103.14 43.3613 103.21 43.1613 103.21ZM41.1063 103.21C40.8963 103.21 40.7163 103.14 40.5663 103C40.4263 102.85 40.3563 102.675 40.3563 102.475C40.3563 102.275 40.4263 102.1 40.5663 101.95C40.7163 101.8 40.8963 101.725 41.1063 101.725C41.3063 101.725 41.4763 101.8 41.6163 101.95C41.7663 102.1 41.8413 102.275 41.8413 102.475C41.8413 102.675 41.7663 102.85 41.6163 103C41.4763 103.14 41.3063 103.21 41.1063 103.21ZM44.752 109.075L44.902 107.845C45.222 107.845 45.482 107.825 45.682 107.785C45.882 107.735 46.047 107.62 46.177 107.44C46.317 107.25 46.447 106.955 46.567 106.555C46.687 106.155 46.827 105.595 46.987 104.875L48.112 105.19C48.052 105.44 47.982 105.74 47.902 106.09C47.822 106.44 47.782 106.76 47.782 107.05C47.782 107.21 47.822 107.35 47.902 107.47C47.982 107.59 48.117 107.685 48.307 107.755C48.507 107.815 48.772 107.845 49.102 107.845C49.402 107.845 49.647 107.82 49.837 107.77C50.027 107.72 50.182 107.6 50.302 107.41C50.432 107.22 50.547 106.915 50.647 106.495C50.747 106.075 50.852 105.5 50.962 104.77L52.102 104.98C52.072 105.16 52.037 105.38 51.997 105.64C51.957 105.9 51.917 106.16 51.877 106.42C51.847 106.67 51.832 106.88 51.832 107.05C51.832 107.19 51.862 107.325 51.922 107.455C51.992 107.575 52.122 107.67 52.312 107.74C52.512 107.81 52.807 107.845 53.197 107.845C53.697 107.845 54.057 107.74 54.277 107.53C54.507 107.32 54.622 107 54.622 106.57C54.622 106.34 54.617 106.1 54.607 105.85C54.597 105.59 54.577 105.305 54.547 104.995C54.527 104.675 54.492 104.31 54.442 103.9L55.537 103.825C55.597 104.635 55.662 105.3 55.732 105.82C55.812 106.34 55.922 106.75 56.062 107.05C56.212 107.34 56.412 107.545 56.662 107.665C56.912 107.785 57.242 107.845 57.652 107.845C57.862 107.845 58.012 107.905 58.102 108.025C58.202 108.135 58.252 108.27 58.252 108.43C58.252 108.59 58.182 108.74 58.042 108.88C57.902 109.01 57.722 109.075 57.502 109.075C57.162 109.075 56.857 109.03 56.587 108.94C56.327 108.84 56.097 108.71 55.897 108.55C55.707 108.38 55.547 108.19 55.417 107.98C55.297 107.76 55.212 107.53 55.162 107.29L55.432 107.38C55.322 107.83 55.147 108.18 54.907 108.43C54.677 108.67 54.402 108.84 54.082 108.94C53.762 109.03 53.422 109.075 53.062 109.075C52.622 109.075 52.262 109.02 51.982 108.91C51.702 108.8 51.482 108.635 51.322 108.415C51.172 108.185 51.072 107.895 51.022 107.545H51.532C51.342 107.975 51.142 108.3 50.932 108.52C50.722 108.74 50.462 108.89 50.152 108.97C49.842 109.04 49.432 109.075 48.922 109.075C48.672 109.075 48.402 109.035 48.112 108.955C47.832 108.875 47.587 108.72 47.377 108.49C47.167 108.25 47.042 107.895 47.002 107.425L47.452 107.335C47.282 107.845 47.072 108.225 46.822 108.475C46.582 108.715 46.292 108.875 45.952 108.955C45.612 109.035 45.212 109.075 44.752 109.075ZM51.217 100.825C51.007 100.825 50.827 100.755 50.677 100.615C50.537 100.465 50.467 100.29 50.467 100.09C50.467 99.89 50.537 99.715 50.677 99.565C50.827 99.415 51.007 99.34 51.217 99.34C51.417 99.34 51.587 99.415 51.727 99.565C51.877 99.715 51.952 99.89 51.952 100.09C51.952 100.29 51.877 100.465 51.727 100.615C51.587 100.755 51.417 100.825 51.217 100.825ZM50.197 102.475C49.987 102.475 49.807 102.405 49.657 102.265C49.517 102.115 49.447 101.94 49.447 101.74C49.447 101.54 49.517 101.365 49.657 101.215C49.807 101.065 49.987 100.99 50.197 100.99C50.397 100.99 50.567 101.065 50.707 101.215C50.857 101.365 50.932 101.54 50.932 101.74C50.932 101.94 50.857 102.115 50.707 102.265C50.567 102.405 50.397 102.475 50.197 102.475ZM52.237 102.475C52.027 102.475 51.847 102.405 51.697 102.265C51.557 102.115 51.487 101.94 51.487 101.74C51.487 101.54 51.557 101.365 51.697 101.215C51.847 101.065 52.027 100.99 52.237 100.99C52.437 100.99 52.607 101.065 52.747 101.215C52.897 101.365 52.972 101.54 52.972 101.74C52.972 101.94 52.897 102.115 52.747 102.265C52.607 102.405 52.437 102.475 52.237 102.475ZM57.4961 109.075L57.6461 107.845C57.9261 107.845 58.1611 107.785 58.3511 107.665C58.5411 107.545 58.7261 107.345 58.9061 107.065C59.0861 106.785 59.2811 106.41 59.4911 105.94C59.7811 105.3 60.0661 104.815 60.3461 104.485C60.6361 104.155 60.9211 103.93 61.2011 103.81C61.4911 103.69 61.7761 103.63 62.0561 103.63C62.3961 103.63 62.7111 103.72 63.0011 103.9C63.2911 104.07 63.5461 104.3 63.7661 104.59C63.9861 104.88 64.1561 105.2 64.2761 105.55C64.4061 105.89 64.4711 106.23 64.4711 106.57C64.4711 107.17 64.3661 107.65 64.1561 108.01C63.9461 108.36 63.6761 108.615 63.3461 108.775C63.0261 108.925 62.6911 109 62.3411 109C62.0311 109 61.6311 108.94 61.1411 108.82C60.6611 108.7 60.0511 108.395 59.3111 107.905L59.8961 106.96C60.3861 107.27 60.8261 107.485 61.2161 107.605C61.6161 107.715 61.9461 107.77 62.2061 107.77C62.4961 107.77 62.7261 107.73 62.8961 107.65C63.0661 107.56 63.1911 107.435 63.2711 107.275C63.3511 107.115 63.3911 106.935 63.3911 106.735C63.3911 106.445 63.3211 106.155 63.1811 105.865C63.0411 105.575 62.8611 105.335 62.6411 105.145C62.4311 104.955 62.2061 104.86 61.9661 104.86C61.7861 104.86 61.6111 104.91 61.4411 105.01C61.2711 105.11 61.0961 105.295 60.9161 105.565C60.7361 105.835 60.5311 106.225 60.3011 106.735C60.0611 107.275 59.8311 107.705 59.6111 108.025C59.4011 108.335 59.1861 108.565 58.9661 108.715C58.7461 108.865 58.5161 108.96 58.2761 109C58.0461 109.05 57.7861 109.075 57.4961 109.075ZM72.6257 109C72.1357 109 71.6957 108.915 71.3057 108.745C70.9157 108.575 70.6057 108.315 70.3757 107.965C70.1557 107.615 70.0457 107.17 70.0457 106.63C70.0457 106.2 70.2107 105.665 70.5407 105.025C70.8707 104.375 71.4457 103.69 72.2657 102.97L72.5507 103.78L71.5307 102.865L72.3107 101.935C72.8307 102.345 73.3107 102.785 73.7507 103.255C74.1907 103.725 74.5457 104.225 74.8157 104.755C75.0857 105.285 75.2207 105.845 75.2207 106.435C75.2207 106.665 75.1807 106.925 75.1007 107.215C75.0207 107.505 74.8857 107.79 74.6957 108.07C74.5057 108.34 74.2407 108.565 73.9007 108.745C73.5607 108.915 73.1357 109 72.6257 109ZM72.6257 107.77C72.9657 107.77 73.2457 107.715 73.4657 107.605C73.6957 107.485 73.8657 107.32 73.9757 107.11C74.0957 106.9 74.1557 106.655 74.1557 106.375C74.1557 106.125 74.1107 105.865 74.0207 105.595C73.9407 105.315 73.7707 105.015 73.5107 104.695C73.2607 104.365 72.8757 103.995 72.3557 103.585L73.0157 103.555C72.6457 103.875 72.3257 104.215 72.0557 104.575C71.7857 104.925 71.5807 105.27 71.4407 105.61C71.3007 105.94 71.2307 106.24 71.2307 106.51C71.2307 106.93 71.3607 107.245 71.6207 107.455C71.8907 107.665 72.2257 107.77 72.6257 107.77ZM80.0398 109.075C79.2398 109.075 78.6248 108.985 78.1948 108.805C77.7748 108.625 77.4848 108.345 77.3248 107.965C77.1648 107.585 77.0748 107.095 77.0548 106.495L76.7548 98.29H77.9848L78.2848 106.015C78.3048 106.505 78.3498 106.885 78.4198 107.155C78.4998 107.415 78.6698 107.595 78.9298 107.695C79.1998 107.795 79.6198 107.845 80.1898 107.845C80.3998 107.845 80.5498 107.905 80.6398 108.025C80.7398 108.135 80.7898 108.27 80.7898 108.43C80.7898 108.59 80.7198 108.74 80.5798 108.88C80.4398 109.01 80.2598 109.075 80.0398 109.075ZM80.025 100.75L79.47 99.91C79.86 99.67 80.325 99.385 80.865 99.055C81.415 98.725 82.045 98.36 82.755 97.96C83.465 97.56 84.25 97.135 85.11 96.685L85.53 97.6C84.66 98.06 83.885 98.48 83.205 98.86C82.535 99.24 81.94 99.585 81.42 99.895C80.9 100.205 80.435 100.49 80.025 100.75ZM80.04 109.075L80.19 107.845H81.345C82.175 107.845 82.79 107.8 83.19 107.71C83.59 107.62 83.85 107.5 83.97 107.35C84.1 107.2 84.165 107.045 84.165 106.885C84.165 106.645 84.075 106.38 83.895 106.09C83.715 105.8 83.485 105.505 83.205 105.205C82.925 104.895 82.625 104.59 82.305 104.29C81.995 103.99 81.7 103.715 81.42 103.465C81.14 103.215 80.91 103 80.73 102.82C80.55 102.63 80.46 102.495 80.46 102.415C80.46 102.265 80.47 102.12 80.49 101.98C80.52 101.84 80.555 101.71 80.595 101.59C80.645 101.47 80.705 101.375 80.775 101.305C80.975 101.095 81.25 100.875 81.6 100.645C81.95 100.405 82.355 100.165 82.815 99.925C83.275 99.675 83.765 99.425 84.285 99.175C84.805 98.915 85.33 98.655 85.86 98.395L86.37 99.505C85.89 99.745 85.41 99.985 84.93 100.225C84.45 100.455 83.985 100.685 83.535 100.915C83.085 101.145 82.66 101.38 82.26 101.62C81.87 101.85 81.515 102.085 81.195 102.325L81.285 101.815C81.735 102.195 82.16 102.56 82.56 102.91C82.96 103.26 83.34 103.62 83.7 103.99C84.06 104.35 84.395 104.74 84.705 105.16C85.015 105.58 85.305 106.045 85.575 106.555C85.785 106.945 86.03 107.23 86.31 107.41C86.59 107.59 86.865 107.71 87.135 107.77C87.415 107.82 87.64 107.845 87.81 107.845C88.02 107.845 88.17 107.905 88.26 108.025C88.36 108.135 88.41 108.27 88.41 108.43C88.41 108.59 88.34 108.74 88.2 108.88C88.06 109.01 87.88 109.075 87.66 109.075C87.39 109.075 87.07 109.035 86.7 108.955C86.34 108.865 85.985 108.695 85.635 108.445C85.285 108.195 84.995 107.815 84.765 107.305L85.215 107.485C85.065 107.755 84.89 107.99 84.69 108.19C84.5 108.38 84.255 108.545 83.955 108.685C83.655 108.815 83.29 108.915 82.86 108.985C82.43 109.045 81.905 109.075 81.285 109.075H80.04ZM87.6572 109.075L87.8072 107.845C88.1272 107.845 88.3872 107.825 88.5872 107.785C88.7872 107.735 88.9522 107.62 89.0822 107.44C89.2222 107.25 89.3522 106.955 89.4722 106.555C89.5922 106.155 89.7322 105.595 89.8922 104.875L91.0172 105.19C90.9772 105.36 90.9322 105.555 90.8822 105.775C90.8322 105.985 90.7872 106.205 90.7472 106.435C90.7072 106.655 90.6872 106.86 90.6872 107.05C90.6872 107.3 90.7822 107.495 90.9722 107.635C91.1622 107.775 91.5072 107.845 92.0072 107.845C92.3072 107.845 92.5522 107.82 92.7422 107.77C92.9322 107.72 93.0872 107.6 93.2072 107.41C93.3372 107.22 93.4522 106.915 93.5522 106.495C93.6522 106.075 93.7572 105.5 93.8672 104.77L95.0072 104.98C94.9772 105.16 94.9422 105.38 94.9022 105.64C94.8622 105.9 94.8222 106.16 94.7822 106.42C94.7522 106.67 94.7372 106.88 94.7372 107.05C94.7372 107.19 94.7672 107.325 94.8272 107.455C94.8972 107.575 95.0272 107.67 95.2172 107.74C95.4172 107.81 95.7122 107.845 96.1022 107.845C96.3922 107.845 96.6422 107.81 96.8522 107.74C97.0722 107.67 97.2372 107.54 97.3472 107.35C97.4672 107.16 97.5272 106.895 97.5272 106.555C97.5272 106.175 97.4372 105.7 97.2572 105.13C97.0872 104.55 96.8922 103.975 96.6722 103.405L97.8872 102.955C98.0172 103.275 98.1372 103.64 98.2472 104.05C98.3672 104.46 98.4672 104.865 98.5472 105.265C98.6272 105.665 98.6672 106.015 98.6672 106.315C98.6672 106.775 98.6072 107.18 98.4872 107.53C98.3672 107.88 98.1972 108.17 97.9772 108.4C97.7572 108.62 97.4872 108.79 97.1672 108.91C96.8472 109.02 96.4872 109.075 96.0872 109.075C95.6172 109.075 95.2322 109.02 94.9322 108.91C94.6322 108.8 94.4022 108.635 94.2422 108.415C94.0822 108.185 93.9772 107.895 93.9272 107.545H94.4372C94.2472 107.975 94.0472 108.3 93.8372 108.52C93.6272 108.74 93.3672 108.89 93.0572 108.97C92.7472 109.04 92.3372 109.075 91.8272 109.075C91.5772 109.075 91.3072 109.035 91.0172 108.955C90.7372 108.875 90.4922 108.72 90.2822 108.49C90.0722 108.25 89.9472 107.895 89.9072 107.425L90.3572 107.335C90.1872 107.845 89.9772 108.225 89.7272 108.475C89.4872 108.715 89.1972 108.875 88.8572 108.955C88.5172 109.035 88.1172 109.075 87.6572 109.075ZM94.1222 100.825C93.9122 100.825 93.7322 100.755 93.5822 100.615C93.4422 100.465 93.3722 100.29 93.3722 100.09C93.3722 99.89 93.4422 99.715 93.5822 99.565C93.7322 99.415 93.9122 99.34 94.1222 99.34C94.3222 99.34 94.4922 99.415 94.6322 99.565C94.7822 99.715 94.8572 99.89 94.8572 100.09C94.8572 100.29 94.7822 100.465 94.6322 100.615C94.4922 100.755 94.3222 100.825 94.1222 100.825ZM93.1022 102.475C92.8922 102.475 92.7122 102.405 92.5622 102.265C92.4222 102.115 92.3522 101.94 92.3522 101.74C92.3522 101.54 92.4222 101.365 92.5622 101.215C92.7122 101.065 92.8922 100.99 93.1022 100.99C93.3022 100.99 93.4722 101.065 93.6122 101.215C93.7622 101.365 93.8372 101.54 93.8372 101.74C93.8372 101.94 93.7622 102.115 93.6122 102.265C93.4722 102.405 93.3022 102.475 93.1022 102.475ZM95.1422 102.475C94.9322 102.475 94.7522 102.405 94.6022 102.265C94.4622 102.115 94.3922 101.94 94.3922 101.74C94.3922 101.54 94.4622 101.365 94.6022 101.215C94.7522 101.065 94.9322 100.99 95.1422 100.99C95.3422 100.99 95.5122 101.065 95.6522 101.215C95.8022 101.365 95.8772 101.54 95.8772 101.74C95.8772 101.94 95.8022 102.115 95.6522 102.265C95.5122 102.405 95.3422 102.475 95.1422 102.475ZM103.785 109.075C102.985 109.075 102.37 108.985 101.94 108.805C101.52 108.625 101.23 108.345 101.07 107.965C100.91 107.585 100.82 107.095 100.8 106.495L100.5 98.29H101.73L102.03 106.015C102.05 106.505 102.095 106.885 102.165 107.155C102.245 107.415 102.415 107.595 102.675 107.695C102.945 107.795 103.365 107.845 103.935 107.845C104.145 107.845 104.295 107.905 104.385 108.025C104.485 108.135 104.535 108.27 104.535 108.43C104.535 108.59 104.465 108.74 104.325 108.88C104.185 109.01 104.005 109.075 103.785 109.075ZM103.785 109.075L103.935 107.845C104.425 107.845 104.815 107.815 105.105 107.755C105.395 107.695 105.605 107.575 105.735 107.395C105.865 107.205 105.93 106.925 105.93 106.555C105.93 106.305 105.89 106.01 105.81 105.67C105.73 105.32 105.625 104.95 105.495 104.56C105.365 104.17 105.225 103.785 105.075 103.405L106.29 102.955C106.42 103.275 106.54 103.64 106.65 104.05C106.77 104.46 106.87 104.865 106.95 105.265C107.03 105.665 107.07 106.015 107.07 106.315C107.07 106.715 107.025 107.07 106.935 107.38C106.855 107.68 106.73 107.94 106.56 108.16C106.39 108.37 106.17 108.545 105.9 108.685C105.64 108.815 105.335 108.915 104.985 108.985C104.635 109.045 104.235 109.075 103.785 109.075ZM105.39 111.865C105.18 111.865 105 111.79 104.85 111.64C104.71 111.5 104.64 111.33 104.64 111.13C104.64 110.93 104.71 110.755 104.85 110.605C105 110.455 105.18 110.38 105.39 110.38C105.59 110.38 105.76 110.455 105.9 110.605C106.05 110.755 106.125 110.93 106.125 111.13C106.125 111.33 106.05 111.5 105.9 111.64C105.76 111.79 105.59 111.865 105.39 111.865Z" fill="white"/>
</svg>
