<svg width="123" height="130" viewBox="0 0 123 130" fill="none" xmlns="http://www.w3.org/2000/svg">
<rect x="1.5" y="1.5" width="119.496" height="127" rx="8.5" fill="white" stroke="#9D3E20" stroke-width="3"/>
<path fill-rule="evenodd" clip-rule="evenodd" d="M66.6001 27.1297C68.969 26.6893 72.0259 26.5768 75.3194 27.4506C77.1227 27.929 80.3382 28.9326 82.9491 31.4003C85.6366 33.9405 87.5302 37.8847 86.9025 43.8801C86.5889 46.8754 85.7151 50.1751 84.805 52.8538L84.4593 53.8713H83.3848H73.7724V57.9412H66.7885V60.4118H71.4444V65.353H66.7885V67.8236H69.1164V72.7648H66.7885V76.6846C66.7885 78.6131 65.225 80.1765 63.2965 80.1765C61.3679 80.1765 59.8045 78.6131 59.8045 76.6846V72.7648H57.4765V67.8236H59.8045V65.353H55.1486V60.4118H59.8045V57.9412H52.8206V53.8713H42.3426H41.2407L40.9112 52.8198C39.6792 48.888 39.6804 43.7631 39.6807 42.5138L39.6807 42.4883C39.6813 39.2389 40.2887 35.7702 42.4623 32.9302C44.6641 30.0535 48.2852 28.0623 53.8067 27.4113C57.2803 27.0017 60.1756 27.4958 62.5072 28.4457C62.829 28.2778 63.1918 28.1175 63.5744 27.9696C64.3883 27.655 65.415 27.3501 66.6001 27.1297ZM65.8707 30.3715C67.6049 31.7075 68.7403 33.235 69.3072 34.4381C69.6603 35.1875 69.339 36.0813 68.5896 36.4344C67.8401 36.7874 66.9464 36.4661 66.5933 35.7167C66.0753 34.6171 64.5958 32.7308 61.9827 31.4914C60.051 30.5752 57.4725 29.9998 54.158 30.3906C49.2036 30.9748 46.4245 32.6893 44.8446 34.7535C43.2367 36.8544 42.6812 39.5618 42.6807 42.4889C42.6805 43.6314 42.6897 47.5753 43.4846 50.8713H82.2978C83.0327 48.5427 83.6732 45.9136 83.9188 43.5677C84.4551 38.4454 82.8568 35.4411 80.8883 33.5806C78.8432 31.6476 76.2388 30.7983 74.5501 30.3503C71.7625 29.6107 69.1642 29.7044 67.1485 30.0792C66.6876 30.1649 66.2601 30.2648 65.8707 30.3715Z" fill="#9D3E20"/>
<path d="M32.0138 101.99L31.7798 100.924C32.2998 100.855 32.7764 100.755 33.2098 100.625C33.6518 100.504 34.0288 100.326 34.3408 100.092C34.6614 99.858 34.9084 99.5503 35.0818 99.169C35.2551 98.7877 35.3418 98.311 35.3418 97.739C35.3418 97.4703 35.3158 97.2147 35.2638 96.972C35.2118 96.7207 35.1338 96.4997 35.0298 96.309C34.9258 96.1183 34.8001 95.9667 34.6528 95.854C34.5141 95.7413 34.3538 95.685 34.1718 95.685C33.9724 95.685 33.7904 95.763 33.6258 95.919C33.4698 96.0663 33.3441 96.257 33.2488 96.491C33.1621 96.725 33.1188 96.959 33.1188 97.193C33.1188 97.375 33.1534 97.5353 33.2228 97.674C33.3008 97.804 33.4264 97.9037 33.5998 97.973C33.7731 98.0423 33.9984 98.077 34.2758 98.077C34.5271 98.077 34.7784 98.051 35.0298 97.999C35.2898 97.947 35.5108 97.8777 35.6928 97.791L35.7448 98.701C35.5368 98.8483 35.2898 98.9523 35.0038 99.013C34.7264 99.0737 34.4448 99.104 34.1588 99.104C33.8294 99.104 33.5348 99.0693 33.2748 99C33.0234 98.9307 32.8068 98.831 32.6248 98.701C32.4514 98.5623 32.3171 98.389 32.2218 98.181C32.1351 97.973 32.0918 97.7303 32.0918 97.453C32.0918 97.1237 32.1438 96.7943 32.2478 96.465C32.3518 96.127 32.4991 95.8193 32.6898 95.542C32.8804 95.2647 33.1101 95.0437 33.3788 94.879C33.6474 94.7057 33.9464 94.619 34.2758 94.619C34.6224 94.619 34.9258 94.71 35.1858 94.892C35.4458 95.0653 35.6624 95.3037 35.8358 95.607C36.0091 95.9103 36.1391 96.2527 36.2258 96.634C36.3124 97.0153 36.3558 97.4097 36.3558 97.817C36.3558 98.623 36.1911 99.3163 35.8618 99.897C35.5411 100.486 35.0558 100.954 34.4058 101.301C33.7644 101.648 32.9671 101.877 32.0138 101.99ZM47.0485 99.065C46.5805 99.065 46.1645 99 45.8005 98.87C45.4451 98.7313 45.1591 98.5017 44.9425 98.181C44.7345 97.8517 44.6175 97.3967 44.5915 96.816L44.3835 92.292H45.4365L45.6445 96.582C45.6705 96.9893 45.7441 97.297 45.8655 97.505C45.9868 97.7043 46.1558 97.8387 46.3725 97.908C46.5978 97.9687 46.8665 97.999 47.1785 97.999C47.3605 97.999 47.4905 98.051 47.5685 98.155C47.6551 98.2503 47.6985 98.3673 47.6985 98.506C47.6985 98.6447 47.6378 98.7747 47.5165 98.896C47.3951 99.0087 47.2391 99.065 47.0485 99.065ZM45.0855 97.635C44.5915 97.791 44.1105 97.869 43.6425 97.869C43.1745 97.869 42.7498 97.7997 42.3685 97.661C41.9871 97.5223 41.6838 97.323 41.4585 97.063C41.2331 96.7943 41.1205 96.4737 41.1205 96.101C41.1205 95.737 41.2115 95.3947 41.3935 95.074C41.5841 94.7533 41.8398 94.4673 42.1605 94.216C42.4898 93.9647 42.8668 93.7567 43.2915 93.592C43.7248 93.4187 44.1841 93.3017 44.6695 93.241L44.8515 94.333C44.4181 94.3503 44.0325 94.411 43.6945 94.515C43.3651 94.6103 43.0835 94.736 42.8495 94.892C42.6241 95.048 42.4508 95.217 42.3295 95.399C42.2081 95.581 42.1475 95.7587 42.1475 95.932C42.1475 96.1227 42.2168 96.2787 42.3555 96.4C42.4941 96.5213 42.6718 96.6167 42.8885 96.686C43.1051 96.7467 43.3435 96.7857 43.6035 96.803C43.8635 96.8117 44.1148 96.803 44.3575 96.777C44.6001 96.7423 44.8081 96.6947 44.9815 96.634L45.0855 97.635ZM47.0527 99.065L47.1827 97.999C47.6161 97.999 47.9541 97.9687 48.1967 97.908C48.4394 97.8387 48.6214 97.713 48.7427 97.531C48.8727 97.3403 48.9767 97.0673 49.0547 96.712C49.1327 96.3567 49.2281 95.893 49.3407 95.321L50.3547 95.516C50.3201 95.672 50.2811 95.8453 50.2377 96.036C50.1944 96.2267 50.1554 96.4173 50.1207 96.608C50.0947 96.79 50.0817 96.9503 50.0817 97.089C50.0817 97.219 50.0904 97.3403 50.1077 97.453C50.1251 97.5657 50.1901 97.661 50.3027 97.739C50.4154 97.817 50.6061 97.882 50.8747 97.934C51.1434 97.9773 51.5291 97.999 52.0317 97.999C52.2137 97.999 52.3437 98.051 52.4217 98.155C52.5084 98.2503 52.5517 98.3673 52.5517 98.506C52.5517 98.6447 52.4911 98.7747 52.3697 98.896C52.2484 99.0087 52.0924 99.065 51.9017 99.065C51.3731 99.065 50.9527 99.039 50.6407 98.987C50.3287 98.9263 50.0904 98.8397 49.9257 98.727C49.7697 98.6143 49.6571 98.4757 49.5877 98.311C49.5271 98.1377 49.4794 97.9383 49.4447 97.713L49.8347 97.739C49.6961 98.0163 49.5444 98.2417 49.3797 98.415C49.2237 98.5883 49.0417 98.7227 48.8337 98.818C48.6257 98.9133 48.3744 98.9783 48.0797 99.013C47.7937 99.0477 47.4514 99.065 47.0527 99.065ZM49.6397 92.552C49.4577 92.552 49.3017 92.4913 49.1717 92.37C49.0504 92.24 48.9897 92.0883 48.9897 91.915C48.9897 91.7417 49.0504 91.59 49.1717 91.46C49.3017 91.33 49.4577 91.265 49.6397 91.265C49.8131 91.265 49.9604 91.33 50.0817 91.46C50.2117 91.59 50.2767 91.7417 50.2767 91.915C50.2767 92.0883 50.2117 92.24 50.0817 92.37C49.9604 92.4913 49.8131 92.552 49.6397 92.552ZM48.7557 93.982C48.5737 93.982 48.4177 93.9213 48.2877 93.8C48.1664 93.67 48.1057 93.5183 48.1057 93.345C48.1057 93.1717 48.1664 93.02 48.2877 92.89C48.4177 92.76 48.5737 92.695 48.7557 92.695C48.9291 92.695 49.0764 92.76 49.1977 92.89C49.3277 93.02 49.3927 93.1717 49.3927 93.345C49.3927 93.5183 49.3277 93.67 49.1977 93.8C49.0764 93.9213 48.9291 93.982 48.7557 93.982ZM50.5237 93.982C50.3417 93.982 50.1857 93.9213 50.0557 93.8C49.9344 93.67 49.8737 93.5183 49.8737 93.345C49.8737 93.1717 49.9344 93.02 50.0557 92.89C50.1857 92.76 50.3417 92.695 50.5237 92.695C50.6971 92.695 50.8444 92.76 50.9657 92.89C51.0957 93.02 51.1607 93.1717 51.1607 93.345C51.1607 93.5183 51.0957 93.67 50.9657 93.8C50.8444 93.9213 50.6971 93.982 50.5237 93.982ZM51.9023 99.065L52.0193 97.999C52.5133 97.999 52.86 97.9513 53.0593 97.856C53.2587 97.7607 53.3713 97.5917 53.3973 97.349C53.432 97.1063 53.4407 96.7683 53.4233 96.335L53.1763 89.718H54.2293L54.4893 96.218C54.5067 96.6773 54.4893 97.0847 54.4373 97.44C54.394 97.7953 54.2813 98.0943 54.0993 98.337C53.926 98.5797 53.6617 98.7617 53.3063 98.883C52.9597 99.0043 52.4917 99.065 51.9023 99.065ZM59.3255 99.013C59.3255 98.805 59.3429 98.584 59.3775 98.35C59.4209 98.1073 59.4815 97.8517 59.5595 97.583C59.6462 97.3057 59.7502 97.0153 59.8715 96.712L60.8075 97.076C60.7209 97.3187 60.6429 97.5483 60.5735 97.765C60.5129 97.9817 60.4652 98.1853 60.4305 98.376C60.4045 98.5667 60.3915 98.7487 60.3915 98.922C60.3915 99.286 60.4695 99.5937 60.6255 99.845C60.7902 100.105 61.0155 100.317 61.3015 100.482C61.5875 100.647 61.9125 100.768 62.2765 100.846C62.6492 100.924 63.0435 100.963 63.4595 100.963C63.9622 100.963 64.4302 100.92 64.8635 100.833C65.3055 100.746 65.6912 100.621 66.0205 100.456C66.3585 100.3 66.6229 100.118 66.8135 99.91C67.0042 99.7107 67.0995 99.494 67.0995 99.26C67.0995 99.1473 67.0562 99.0433 66.9695 98.948C66.8829 98.8527 66.7529 98.7617 66.5795 98.675C66.4062 98.5883 66.1982 98.506 65.9555 98.428C65.7129 98.3413 65.4355 98.2547 65.1235 98.168L65.3705 97.089C65.8212 97.2623 66.2199 97.4097 66.5665 97.531C66.9132 97.6437 67.2165 97.7347 67.4765 97.804C67.7365 97.8733 67.9619 97.9253 68.1525 97.96C68.3432 97.986 68.5035 97.999 68.6335 97.999C68.8155 97.999 68.9455 98.051 69.0235 98.155C69.1102 98.2503 69.1535 98.3673 69.1535 98.506C69.1535 98.6447 69.0929 98.7747 68.9715 98.896C68.8502 99.0087 68.6942 99.065 68.5035 99.065C68.4515 99.065 68.3995 99.065 68.3475 99.065C68.2955 99.065 68.2392 99.065 68.1785 99.065C68.1265 99.065 68.0745 99.065 68.0225 99.065C68.0399 99.143 68.0529 99.2037 68.0615 99.247C68.0702 99.299 68.0745 99.364 68.0745 99.442C68.0745 99.7627 67.9619 100.075 67.7365 100.378C67.5199 100.681 67.1992 100.954 66.7745 101.197C66.3499 101.448 65.8342 101.648 65.2275 101.795C64.6295 101.942 63.9449 102.016 63.1735 102.016C62.4889 102.016 61.8519 101.903 61.2625 101.678C60.6819 101.461 60.2139 101.132 59.8585 100.69C59.5032 100.248 59.3255 99.689 59.3255 99.013ZM68.5078 99.065L68.6248 97.999C69.0755 97.999 69.5175 97.9643 69.9508 97.895C70.3841 97.8257 70.8088 97.726 71.2248 97.596C71.6408 97.466 72.0395 97.31 72.4208 97.128C72.8108 96.9373 73.1791 96.7207 73.5258 96.478C73.3005 96.2787 73.0405 96.1053 72.7458 95.958C72.4511 95.8107 72.1261 95.698 71.7708 95.62C71.4241 95.5333 71.0558 95.49 70.6658 95.49C70.5271 95.49 70.3971 95.4943 70.2758 95.503C70.1545 95.5117 70.0331 95.529 69.9118 95.555C69.7905 95.5723 69.6518 95.5983 69.4958 95.633L69.2878 94.645C69.5218 94.5757 69.7558 94.5237 69.9898 94.489C70.2238 94.4457 70.4491 94.424 70.6658 94.424C71.1165 94.424 71.5238 94.4803 71.8878 94.593C72.2518 94.697 72.5811 94.827 72.8758 94.983C73.1791 95.139 73.4608 95.295 73.7208 95.451C73.9895 95.607 74.2495 95.7413 74.5008 95.854C74.7521 95.958 75.0121 96.01 75.2808 96.01H75.5538L75.6448 96.946C75.2721 96.946 74.9298 96.998 74.6178 97.102C74.3058 97.206 73.9981 97.3403 73.6948 97.505C73.4001 97.661 73.0881 97.83 72.7588 98.012C72.4295 98.1853 72.0655 98.3543 71.6668 98.519C71.2681 98.675 70.8088 98.805 70.2888 98.909C69.7775 99.013 69.1838 99.065 68.5078 99.065ZM77.3591 99L77.0991 89.718H78.1521L78.4121 99H77.3591ZM78.9827 102.016L78.6057 101.028C79.2383 100.82 79.7627 100.582 80.1787 100.313C80.6033 100.044 80.937 99.7583 81.1797 99.455C81.431 99.1517 81.6087 98.844 81.7127 98.532C81.8167 98.2113 81.8687 97.9037 81.8687 97.609C81.8687 97.1843 81.7733 96.7553 81.5827 96.322C81.4007 95.88 81.197 95.464 80.9717 95.074L81.9207 94.593C82.0853 94.8963 82.2283 95.1953 82.3497 95.49C82.4797 95.7847 82.5923 96.062 82.6877 96.322C82.7917 96.582 82.874 96.8203 82.9347 97.037C83.056 97.4097 83.212 97.6653 83.4027 97.804C83.602 97.934 83.8707 97.999 84.2087 97.999C84.3907 97.999 84.5207 98.051 84.5987 98.155C84.6853 98.2503 84.7287 98.3673 84.7287 98.506C84.7287 98.6447 84.668 98.7747 84.5467 98.896C84.4253 99.0087 84.2693 99.065 84.0787 99.065C83.6973 99.065 83.3853 99 83.1427 98.87C82.9087 98.7313 82.731 98.5537 82.6097 98.337C82.4883 98.1117 82.406 97.8777 82.3627 97.635L82.7787 97.869C82.7787 98.441 82.6487 98.961 82.3887 99.429C82.1373 99.9057 81.8123 100.317 81.4137 100.664C81.015 101.019 80.599 101.31 80.1657 101.535C79.7323 101.76 79.338 101.921 78.9827 102.016ZM84.085 99.065L84.202 97.999C84.6526 97.999 85.0946 97.9643 85.528 97.895C85.9613 97.8257 86.386 97.726 86.802 97.596C87.218 97.466 87.6166 97.31 87.998 97.128C88.388 96.9373 88.7563 96.7207 89.103 96.478C88.8776 96.2787 88.6176 96.1053 88.323 95.958C88.0283 95.8107 87.7033 95.698 87.348 95.62C87.0013 95.5333 86.633 95.49 86.243 95.49C86.1043 95.49 85.9743 95.4943 85.853 95.503C85.7316 95.5117 85.6103 95.529 85.489 95.555C85.3676 95.5723 85.229 95.5983 85.073 95.633L84.865 94.645C85.099 94.5757 85.333 94.5237 85.567 94.489C85.801 94.4457 86.0263 94.424 86.243 94.424C86.6936 94.424 87.101 94.4803 87.465 94.593C87.829 94.697 88.1583 94.827 88.453 94.983C88.7563 95.139 89.038 95.295 89.298 95.451C89.5666 95.607 89.8266 95.7413 90.078 95.854C90.3293 95.958 90.5893 96.01 90.858 96.01H91.131L91.222 96.946C90.8493 96.946 90.507 96.998 90.195 97.102C89.883 97.206 89.5753 97.3403 89.272 97.505C88.9773 97.661 88.6653 97.83 88.336 98.012C88.0066 98.1853 87.6426 98.3543 87.244 98.519C86.8453 98.675 86.386 98.805 85.866 98.909C85.3546 99.013 84.761 99.065 84.085 99.065ZM87.712 101.418C87.53 101.418 87.374 101.353 87.244 101.223C87.1226 101.102 87.062 100.954 87.062 100.781C87.062 100.608 87.1226 100.456 87.244 100.326C87.374 100.196 87.53 100.131 87.712 100.131C87.8853 100.131 88.0326 100.196 88.154 100.326C88.284 100.456 88.349 100.608 88.349 100.781C88.349 100.954 88.284 101.102 88.154 101.223C88.0326 101.353 87.8853 101.418 87.712 101.418ZM45.6164 115.273L45.9544 114.207C46.4831 114.207 47.0421 114.177 47.6314 114.116C48.2207 114.047 48.8057 113.93 49.3864 113.765C49.9757 113.592 50.5347 113.358 51.0634 113.063C51.5921 112.768 52.0557 112.396 52.4544 111.945L53.2734 112.426C53.1954 112.625 53.1434 112.786 53.1174 112.907C53.0914 113.02 53.0784 113.124 53.0784 113.219C53.0784 113.349 53.1261 113.475 53.2214 113.596C53.3167 113.709 53.4944 113.804 53.7544 113.882C54.0231 113.96 54.4001 113.999 54.8854 113.999C55.0674 113.999 55.1974 114.051 55.2754 114.155C55.3621 114.25 55.4054 114.367 55.4054 114.506C55.4054 114.645 55.3447 114.775 55.2234 114.896C55.1021 115.009 54.9461 115.065 54.7554 115.065C54.2007 115.065 53.7111 115.009 53.2864 114.896C52.8704 114.775 52.5584 114.588 52.3504 114.337C52.1511 114.077 52.0861 113.743 52.1554 113.336L52.3894 113.414C52.0427 113.726 51.6267 113.999 51.1414 114.233C50.6647 114.458 50.1317 114.649 49.5424 114.805C48.9617 114.961 48.3377 115.078 47.6704 115.156C47.0117 115.234 46.3271 115.273 45.6164 115.273ZM45.6164 115.273C44.8451 115.273 44.1647 115.221 43.5754 115.117C42.9947 115.022 42.5094 114.87 42.1194 114.662C41.7294 114.454 41.4347 114.185 41.2354 113.856C41.0361 113.518 40.9364 113.111 40.9364 112.634C40.9364 112.417 40.9537 112.196 40.9884 111.971C41.0231 111.737 41.0664 111.503 41.1184 111.269C41.1791 111.035 41.2397 110.81 41.3004 110.593L42.2754 110.84C42.2407 110.97 42.2017 111.126 42.1584 111.308C42.1151 111.481 42.0761 111.659 42.0414 111.841C42.0154 112.023 42.0024 112.188 42.0024 112.335C42.0024 112.786 42.1151 113.15 42.3404 113.427C42.5744 113.696 42.9774 113.895 43.5494 114.025C44.1214 114.146 44.9231 114.207 45.9544 114.207L46.2144 114.857L45.6164 115.273ZM47.8004 109.787C47.6184 109.787 47.4624 109.726 47.3324 109.605C47.2111 109.475 47.1504 109.323 47.1504 109.15C47.1504 108.977 47.2111 108.825 47.3324 108.695C47.4624 108.565 47.6184 108.5 47.8004 108.5C47.9737 108.5 48.1211 108.565 48.2424 108.695C48.3724 108.825 48.4374 108.977 48.4374 109.15C48.4374 109.323 48.3724 109.475 48.2424 109.605C48.1211 109.726 47.9737 109.787 47.8004 109.787ZM46.0194 109.787C45.8374 109.787 45.6814 109.726 45.5514 109.605C45.4301 109.475 45.3694 109.323 45.3694 109.15C45.3694 108.977 45.4301 108.825 45.5514 108.695C45.6814 108.565 45.8374 108.5 46.0194 108.5C46.1927 108.5 46.3401 108.565 46.4614 108.695C46.5914 108.825 46.6564 108.977 46.6564 109.15C46.6564 109.323 46.5914 109.475 46.4614 109.605C46.3401 109.726 46.1927 109.787 46.0194 109.787ZM54.7524 115.065L54.8824 113.999C55.2464 113.999 55.5324 113.969 55.7404 113.908C55.9484 113.839 56.1044 113.713 56.2084 113.531C56.3211 113.34 56.4164 113.067 56.4944 112.712C56.5724 112.357 56.6678 111.893 56.7804 111.321L57.7944 111.516C57.7598 111.672 57.7208 111.845 57.6774 112.036C57.6341 112.227 57.5951 112.417 57.5604 112.608C57.5344 112.79 57.5214 112.95 57.5214 113.089C57.5214 113.262 57.5604 113.418 57.6384 113.557C57.7164 113.696 57.8854 113.804 58.1454 113.882C58.4054 113.96 58.8041 113.999 59.3414 113.999C59.5234 113.999 59.6534 114.051 59.7314 114.155C59.8181 114.25 59.8614 114.367 59.8614 114.506C59.8614 114.645 59.8008 114.775 59.6794 114.896C59.5581 115.009 59.4021 115.065 59.2114 115.065C58.6481 115.065 58.2061 115.017 57.8854 114.922C57.5648 114.818 57.3308 114.666 57.1834 114.467C57.0361 114.259 56.9364 114.008 56.8844 113.713L57.2744 113.739C57.1358 114.016 56.9841 114.242 56.8194 114.415C56.6634 114.588 56.4901 114.723 56.2994 114.818C56.1088 114.913 55.8878 114.978 55.6364 115.013C55.3851 115.048 55.0904 115.065 54.7524 115.065ZM56.7804 109.982C56.5984 109.982 56.4424 109.921 56.3124 109.8C56.1911 109.67 56.1304 109.518 56.1304 109.345C56.1304 109.172 56.1911 109.02 56.3124 108.89C56.4424 108.76 56.5984 108.695 56.7804 108.695C56.9538 108.695 57.1011 108.76 57.2224 108.89C57.3524 109.02 57.4174 109.172 57.4174 109.345C57.4174 109.518 57.3524 109.67 57.2224 109.8C57.1011 109.921 56.9538 109.982 56.7804 109.982ZM59.2085 115.065L59.3255 113.999C59.8195 113.999 60.1662 113.951 60.3655 113.856C60.5648 113.761 60.6775 113.592 60.7035 113.349C60.7382 113.106 60.7468 112.768 60.7295 112.335L60.5085 105.718H61.5875L61.7955 112.309C61.8128 112.751 61.8822 113.098 62.0035 113.349C62.1335 113.592 62.3068 113.761 62.5235 113.856C62.7402 113.951 62.9785 113.999 63.2385 113.999C63.4205 113.999 63.5505 114.051 63.6285 114.155C63.7152 114.25 63.7585 114.367 63.7585 114.506C63.7585 114.645 63.6978 114.775 63.5765 114.896C63.4552 115.009 63.2992 115.065 63.1085 115.065C62.7445 115.065 62.4412 115.009 62.1985 114.896C61.9645 114.775 61.7782 114.623 61.6395 114.441C61.5095 114.25 61.4228 114.051 61.3795 113.843L61.6525 113.869C61.5658 114.129 61.4228 114.35 61.2235 114.532C61.0328 114.705 60.7728 114.84 60.4435 114.935C60.1142 115.022 59.7025 115.065 59.2085 115.065ZM63.106 115.065L63.236 113.999C63.6693 113.999 64.0073 113.969 64.25 113.908C64.4926 113.839 64.6746 113.713 64.796 113.531C64.926 113.34 65.03 113.067 65.108 112.712C65.186 112.357 65.2813 111.893 65.394 111.321L66.408 111.516C66.3733 111.672 66.3343 111.845 66.291 112.036C66.2476 112.227 66.2086 112.417 66.174 112.608C66.148 112.79 66.135 112.95 66.135 113.089C66.135 113.219 66.1436 113.34 66.161 113.453C66.1783 113.566 66.2433 113.661 66.356 113.739C66.4686 113.817 66.6593 113.882 66.928 113.934C67.1966 113.977 67.5823 113.999 68.085 113.999C68.267 113.999 68.397 114.051 68.475 114.155C68.5616 114.25 68.605 114.367 68.605 114.506C68.605 114.645 68.5443 114.775 68.423 114.896C68.3016 115.009 68.1456 115.065 67.955 115.065C67.4263 115.065 67.006 115.039 66.694 114.987C66.382 114.926 66.1436 114.84 65.979 114.727C65.823 114.614 65.7103 114.476 65.641 114.311C65.5803 114.138 65.5326 113.938 65.498 113.713L65.888 113.739C65.7493 114.016 65.5976 114.242 65.433 114.415C65.277 114.588 65.095 114.723 64.887 114.818C64.679 114.913 64.4276 114.978 64.133 115.013C63.847 115.048 63.5046 115.065 63.106 115.065ZM65.433 118.965C65.2596 118.965 65.108 118.9 64.978 118.77C64.8566 118.64 64.796 118.488 64.796 118.315C64.796 118.142 64.8566 117.99 64.978 117.86C65.108 117.739 65.2596 117.678 65.433 117.678C65.615 117.678 65.7666 117.739 65.888 117.86C66.018 117.99 66.083 118.142 66.083 118.315C66.083 118.488 66.018 118.64 65.888 118.77C65.7666 118.9 65.615 118.965 65.433 118.965ZM66.317 117.535C66.1436 117.535 65.992 117.47 65.862 117.34C65.7406 117.21 65.68 117.058 65.68 116.885C65.68 116.712 65.7406 116.56 65.862 116.43C65.992 116.309 66.1436 116.248 66.317 116.248C66.499 116.248 66.6506 116.309 66.772 116.43C66.902 116.56 66.967 116.712 66.967 116.885C66.967 117.058 66.902 117.21 66.772 117.34C66.6506 117.47 66.499 117.535 66.317 117.535ZM64.549 117.535C64.3756 117.535 64.224 117.47 64.094 117.34C63.9726 117.21 63.912 117.058 63.912 116.885C63.912 116.712 63.9726 116.56 64.094 116.43C64.224 116.309 64.3756 116.248 64.549 116.248C64.731 116.248 64.8826 116.309 65.004 116.43C65.134 116.56 65.199 116.712 65.199 116.885C65.199 117.058 65.134 117.21 65.004 117.34C64.8826 117.47 64.731 117.535 64.549 117.535ZM67.9556 115.065L68.0856 113.999C68.3282 113.999 68.5189 113.947 68.6576 113.843C68.8049 113.739 68.9436 113.566 69.0736 113.323C69.2122 113.08 69.3856 112.755 69.5936 112.348C69.8016 111.932 70.0096 111.594 70.2176 111.334C70.4342 111.065 70.6422 110.857 70.8416 110.71C71.0496 110.554 71.2446 110.446 71.4266 110.385C71.6086 110.324 71.7776 110.294 71.9336 110.294C72.2196 110.294 72.4752 110.359 72.7006 110.489C72.9259 110.61 73.1382 110.823 73.3376 111.126C73.5369 111.421 73.7406 111.828 73.9486 112.348C74.1479 112.825 74.3256 113.184 74.4816 113.427C74.6462 113.661 74.8152 113.817 74.9886 113.895C75.1706 113.964 75.3742 113.999 75.5996 113.999C75.7816 113.999 75.9116 114.051 75.9896 114.155C76.0762 114.25 76.1196 114.367 76.1196 114.506C76.1196 114.645 76.0589 114.775 75.9376 114.896C75.8162 115.009 75.6602 115.065 75.4696 115.065C75.1316 115.065 74.8196 115.009 74.5336 114.896C74.2562 114.783 74.0222 114.606 73.8316 114.363L74.0136 114.09C73.9182 114.359 73.7882 114.58 73.6236 114.753C73.4676 114.918 73.2899 115.039 73.0906 115.117C72.8912 115.204 72.6789 115.247 72.4536 115.247C72.1676 115.247 71.8729 115.186 71.5696 115.065C71.2749 114.944 70.9889 114.77 70.7116 114.545C70.4342 114.32 70.1916 114.055 69.9836 113.752C69.7582 114.151 69.5416 114.445 69.3336 114.636C69.1342 114.818 68.9262 114.935 68.7096 114.987C68.4929 115.039 68.2416 115.065 67.9556 115.065ZM70.4776 112.764C70.6249 113.007 70.7809 113.219 70.9456 113.401C71.1189 113.583 71.2922 113.735 71.4656 113.856C71.6389 113.969 71.8079 114.055 71.9726 114.116C72.1459 114.168 72.3019 114.194 72.4406 114.194C72.7439 114.194 72.9649 114.086 73.1036 113.869C73.2509 113.652 73.2466 113.349 73.0906 112.959C73.0126 112.76 72.9302 112.565 72.8436 112.374C72.7656 112.183 72.6789 112.01 72.5836 111.854C72.4882 111.689 72.3799 111.564 72.2586 111.477C72.1372 111.382 72.0029 111.334 71.8556 111.334C71.7256 111.334 71.5869 111.377 71.4396 111.464C71.3009 111.551 71.1492 111.698 70.9846 111.906C70.8286 112.114 70.6596 112.4 70.4776 112.764ZM75.4712 115.065L75.6012 113.999C76.1125 113.999 76.5112 113.982 76.7972 113.947C77.0832 113.904 77.2869 113.804 77.4082 113.648C77.5295 113.483 77.5902 113.228 77.5902 112.881C77.5902 112.664 77.5555 112.409 77.4862 112.114C77.4169 111.811 77.3259 111.49 77.2132 111.152C77.1005 110.814 76.9792 110.48 76.8492 110.151L77.9022 109.761C78.0149 110.038 78.1189 110.355 78.2142 110.71C78.3182 111.065 78.4049 111.416 78.4742 111.763C78.5435 112.11 78.5782 112.413 78.5782 112.673C78.5782 113.106 78.5175 113.475 78.3962 113.778C78.2835 114.081 78.1015 114.328 77.8502 114.519C77.5989 114.71 77.2739 114.848 76.8752 114.935C76.4852 115.022 76.0172 115.065 75.4712 115.065ZM77.8762 117.522C77.6942 117.522 77.5382 117.457 77.4082 117.327C77.2869 117.206 77.2262 117.058 77.2262 116.885C77.2262 116.712 77.2869 116.56 77.4082 116.43C77.5382 116.3 77.6942 116.235 77.8762 116.235C78.0495 116.235 78.1969 116.3 78.3182 116.43C78.4482 116.56 78.5132 116.712 78.5132 116.885C78.5132 117.058 78.4482 117.206 78.3182 117.327C78.1969 117.457 78.0495 117.522 77.8762 117.522ZM76.0952 117.522C75.9132 117.522 75.7572 117.457 75.6272 117.327C75.5059 117.206 75.4452 117.058 75.4452 116.885C75.4452 116.712 75.5059 116.56 75.6272 116.43C75.7572 116.3 75.9132 116.235 76.0952 116.235C76.2685 116.235 76.4159 116.3 76.5372 116.43C76.6672 116.56 76.7322 116.712 76.7322 116.885C76.7322 117.058 76.6672 117.206 76.5372 117.327C76.4159 117.457 76.2685 117.522 76.0952 117.522ZM80.552 115L80.292 105.718H81.345L81.605 115H80.552Z" fill="#9D3E20"/>
</svg>
