<svg width="123" height="130" viewBox="0 0 123 130" fill="none" xmlns="http://www.w3.org/2000/svg">
<rect x="1.98828" y="1.5" width="119.496" height="127" rx="8.5" fill="white" stroke="#9D3E20" stroke-width="3"/>
<path d="M67.1106 32.6067C66.445 31.1939 64.7136 29.0541 61.7859 27.6654M61.7859 27.6654C59.5938 26.6257 56.731 26.0071 53.1428 26.4302C42.6669 27.6655 40.3422 33.8414 40.3411 40.0179C40.3408 41.2532 40.3416 46.1944 41.503 49.9006C44.7883 60.3849 46.1594 58.5473 48.4871 72.136C48.8751 74.6066 50.2235 82.8851 54.307 82.0184C60.127 80.7831 60.8088 56.5889 62.4549 54.8419C63.6189 53.6066 64.7829 64.7242 65.9469 69.6654C67.8592 77.7834 70.1632 82.9974 72.9308 82.0184C75.6985 81.0393 76.4231 73.3708 77.5871 68.4297C78.7511 56.0767 83.6657 49.9006 84.5711 41.2532C85.735 30.1356 77.5871 27.3561 74.0952 26.4297C68.014 24.8165 62.7849 26.8419 61.7859 27.6654Z" stroke="#9D3E20" stroke-width="5" stroke-linecap="round"/>
<path d="M49.6528 38.1765C50.9174 41.8366 54.395 48.0589 62.9309 48.0589C66.7247 48.0589 72.4153 45.8628 75.2606 38.1765" stroke="#9D3E20" stroke-width="5" stroke-linecap="round"/>
<path d="M44.8761 109.315L45.2661 108.085C46.4361 108.085 47.4411 108.055 48.2811 107.995C49.1311 107.935 49.8261 107.84 50.3661 107.71C50.9161 107.57 51.3211 107.385 51.5811 107.155C51.8511 106.915 51.9861 106.625 51.9861 106.285C51.9861 105.905 51.9161 105.465 51.7761 104.965C51.6361 104.465 51.4561 103.93 51.2361 103.36L52.3911 102.955C52.5211 103.275 52.6411 103.62 52.7511 103.99C52.8711 104.35 52.9711 104.71 53.0511 105.07C53.1311 105.42 53.1711 105.745 53.1711 106.045C53.1711 106.635 53.0361 107.14 52.7661 107.56C52.4961 107.97 52.0461 108.305 51.4161 108.565C50.7861 108.825 49.9361 109.015 48.8661 109.135C47.8061 109.255 46.4761 109.315 44.8761 109.315ZM44.8761 109.315C43.9861 109.315 43.2011 109.255 42.5211 109.135C41.8511 109.025 41.2911 108.85 40.8411 108.61C40.3911 108.37 40.0511 108.06 39.8211 107.68C39.5911 107.29 39.4761 106.82 39.4761 106.27C39.4761 106.02 39.4961 105.765 39.5361 105.505C39.5761 105.235 39.6261 104.965 39.6861 104.695C39.7561 104.425 39.8261 104.165 39.8961 103.915L41.0211 104.2C40.9811 104.35 40.9361 104.53 40.8861 104.74C40.8361 104.94 40.7911 105.145 40.7511 105.355C40.7211 105.565 40.7061 105.755 40.7061 105.925C40.7061 106.445 40.8361 106.865 41.0961 107.185C41.3661 107.495 41.8311 107.725 42.4911 107.875C43.1511 108.015 44.0761 108.085 45.2661 108.085L45.5661 108.835L44.8761 109.315ZM47.3811 102.985C47.1711 102.985 46.9911 102.915 46.8411 102.775C46.7011 102.625 46.6311 102.45 46.6311 102.25C46.6311 102.05 46.7011 101.875 46.8411 101.725C46.9911 101.575 47.1711 101.5 47.3811 101.5C47.5811 101.5 47.7511 101.575 47.8911 101.725C48.0411 101.875 48.1161 102.05 48.1161 102.25C48.1161 102.45 48.0411 102.625 47.8911 102.775C47.7511 102.915 47.5811 102.985 47.3811 102.985ZM45.3261 102.985C45.1161 102.985 44.9361 102.915 44.7861 102.775C44.6461 102.625 44.5761 102.45 44.5761 102.25C44.5761 102.05 44.6461 101.875 44.7861 101.725C44.9361 101.575 45.1161 101.5 45.3261 101.5C45.5261 101.5 45.6961 101.575 45.8361 101.725C45.9861 101.875 46.0611 102.05 46.0611 102.25C46.0611 102.45 45.9861 102.625 45.8361 102.775C45.6961 102.915 45.5261 102.985 45.3261 102.985ZM58.2886 109.075C57.4886 109.075 56.8736 108.985 56.4436 108.805C56.0236 108.625 55.7336 108.345 55.5736 107.965C55.4136 107.585 55.3236 107.095 55.3036 106.495L55.0036 98.29H56.2336L56.5336 106.015C56.5536 106.505 56.5986 106.885 56.6686 107.155C56.7486 107.415 56.9186 107.595 57.1786 107.695C57.4486 107.795 57.8686 107.845 58.4386 107.845C58.6486 107.845 58.7986 107.905 58.8886 108.025C58.9886 108.135 59.0386 108.27 59.0386 108.43C59.0386 108.59 58.9686 108.74 58.8286 108.88C58.6886 109.01 58.5086 109.075 58.2886 109.075ZM58.2888 109.075L58.4388 107.845C58.7188 107.845 58.9538 107.785 59.1438 107.665C59.3338 107.545 59.5188 107.345 59.6988 107.065C59.8788 106.785 60.0738 106.41 60.2838 105.94C60.5738 105.3 60.8588 104.815 61.1388 104.485C61.4288 104.155 61.7138 103.93 61.9938 103.81C62.2838 103.69 62.5688 103.63 62.8488 103.63C63.1888 103.63 63.5038 103.72 63.7938 103.9C64.0838 104.07 64.3388 104.3 64.5588 104.59C64.7788 104.88 64.9488 105.2 65.0688 105.55C65.1988 105.89 65.2638 106.23 65.2638 106.57C65.2638 107.17 65.1588 107.65 64.9488 108.01C64.7388 108.36 64.4688 108.615 64.1388 108.775C63.8188 108.925 63.4838 109 63.1338 109C62.8238 109 62.4238 108.94 61.9338 108.82C61.4538 108.7 60.8438 108.395 60.1038 107.905L60.6888 106.96C61.1788 107.27 61.6188 107.485 62.0088 107.605C62.4088 107.715 62.7388 107.77 62.9988 107.77C63.2888 107.77 63.5188 107.73 63.6888 107.65C63.8588 107.56 63.9838 107.435 64.0638 107.275C64.1438 107.115 64.1838 106.935 64.1838 106.735C64.1838 106.445 64.1138 106.155 63.9738 105.865C63.8338 105.575 63.6538 105.335 63.4338 105.145C63.2238 104.955 62.9988 104.86 62.7588 104.86C62.5788 104.86 62.4038 104.91 62.2338 105.01C62.0638 105.11 61.8888 105.295 61.7088 105.565C61.5288 105.835 61.3238 106.225 61.0938 106.735C60.8538 107.275 60.6238 107.705 60.4038 108.025C60.1938 108.335 59.9788 108.565 59.7588 108.715C59.5388 108.865 59.3088 108.96 59.0688 109C58.8388 109.05 58.5788 109.075 58.2888 109.075ZM69.3947 107.845C69.8947 107.845 70.2897 107.795 70.5797 107.695C70.8797 107.595 71.0947 107.45 71.2247 107.26C71.3647 107.06 71.4347 106.83 71.4347 106.57C71.4347 106.37 71.3797 106.13 71.2697 105.85C71.1697 105.57 71.0297 105.26 70.8497 104.92C70.6697 104.57 70.4597 104.205 70.2197 103.825C69.9897 103.435 69.7397 103.04 69.4697 102.64L70.5047 101.965C70.8947 102.555 71.2347 103.115 71.5247 103.645C71.8147 104.165 72.0597 104.655 72.2597 105.115C72.4597 105.565 72.6197 105.99 72.7397 106.39C72.8797 106.83 73.0347 107.155 73.2047 107.365C73.3847 107.575 73.5697 107.71 73.7597 107.77C73.9497 107.82 74.1247 107.845 74.2847 107.845C74.4947 107.845 74.6497 107.905 74.7497 108.025C74.8497 108.135 74.8997 108.27 74.8997 108.43C74.8997 108.59 74.8297 108.74 74.6897 108.88C74.5497 109.01 74.3697 109.075 74.1497 109.075C73.8197 109.075 73.4947 109.015 73.1747 108.895C72.8647 108.765 72.5947 108.56 72.3647 108.28C72.1347 107.99 71.9747 107.605 71.8847 107.125L72.4847 106.645C72.4847 107.045 72.3997 107.435 72.2297 107.815C72.0597 108.185 71.7497 108.49 71.2997 108.73C70.8597 108.97 70.2247 109.09 69.3947 109.09C69.0347 109.09 68.6847 109.06 68.3447 109C68.0147 108.94 67.7097 108.855 67.4297 108.745C67.1497 108.625 66.9047 108.485 66.6947 108.325L67.2947 107.29C67.4947 107.42 67.7747 107.545 68.1347 107.665C68.4947 107.785 68.9147 107.845 69.3947 107.845ZM74.1531 109.075L74.2881 107.845C74.8081 107.845 75.3181 107.805 75.8181 107.725C76.3181 107.645 76.8081 107.53 77.2881 107.38C77.7681 107.23 78.2281 107.05 78.6681 106.84C79.1181 106.62 79.5431 106.37 79.9431 106.09C79.6831 105.86 79.3831 105.66 79.0431 105.49C78.7031 105.32 78.3281 105.19 77.9181 105.1C77.5181 105 77.0931 104.95 76.6431 104.95C76.4831 104.95 76.3331 104.955 76.1931 104.965C76.0531 104.975 75.9131 104.995 75.7731 105.025C75.6331 105.045 75.4731 105.075 75.2931 105.115L75.0531 103.975C75.3231 103.895 75.5931 103.835 75.8631 103.795C76.1331 103.745 76.3931 103.72 76.6431 103.72C77.1631 103.72 77.6331 103.785 78.0531 103.915C78.4731 104.035 78.8531 104.185 79.1931 104.365C79.5431 104.545 79.8681 104.725 80.1681 104.905C80.4781 105.085 80.7781 105.24 81.0681 105.37C81.3581 105.49 81.6581 105.55 81.9681 105.55H82.2831L82.3881 106.63C81.9581 106.63 81.5631 106.69 81.2031 106.81C80.8431 106.93 80.4881 107.085 80.1381 107.275C79.7981 107.455 79.4381 107.65 79.0581 107.86C78.6781 108.06 78.2581 108.255 77.7981 108.445C77.3381 108.625 76.8081 108.775 76.2081 108.895C75.6181 109.015 74.9331 109.075 74.1531 109.075ZM76.6581 102.175C76.4481 102.175 76.2681 102.105 76.1181 101.965C75.9781 101.815 75.9081 101.64 75.9081 101.44C75.9081 101.24 75.9781 101.065 76.1181 100.915C76.2681 100.765 76.4481 100.69 76.6581 100.69C76.8581 100.69 77.0281 100.765 77.1681 100.915C77.3181 101.065 77.3931 101.24 77.3931 101.44C77.3931 101.64 77.3181 101.815 77.1681 101.965C77.0281 102.105 76.8581 102.175 76.6581 102.175Z" fill="#9D3E20"/>
</svg>
