<svg width="123" height="130" viewBox="0 0 123 130" fill="none" xmlns="http://www.w3.org/2000/svg">
<rect x="0.496094" width="122.496" height="130" rx="10" fill="white"/>
<rect x="1.99609" y="1.5" width="119.496" height="127" rx="8.5" stroke="#4C4C4C" stroke-opacity="0.75" stroke-width="3"/>
<path d="M87.275 38.3438H76.4824V36.9963C76.4824 28.4396 69.9433 21.5 61.8806 21.5C53.8179 21.5 47.2788 28.4396 47.2788 36.9963V38.3438H36.4862C35.0816 38.3438 33.9468 39.5481 33.9468 41.0387V86.18C33.9468 87.6707 35.0816 88.875 36.4862 88.875H87.275C88.6796 88.875 89.8144 87.6707 89.8144 86.18V41.0387C89.8144 39.5481 88.6796 38.3438 87.275 38.3438ZM52.9926 36.9963C52.9926 31.7831 56.9684 27.5637 61.8806 27.5637C66.7928 27.5637 70.7686 31.7831 70.7686 36.9963V38.3438H52.9926V36.9963ZM84.1007 82.8112H39.6605V44.4075H47.2788V51.8188C47.2788 52.1893 47.5645 52.4925 47.9137 52.4925H52.3577C52.7069 52.4925 52.9926 52.1893 52.9926 51.8188V44.4075H70.7686V51.8188C70.7686 52.1893 71.0543 52.4925 71.4035 52.4925H75.8475C76.1967 52.4925 76.4824 52.1893 76.4824 51.8188V44.4075H84.1007V82.8112Z" fill="#4C4C4C" fill-opacity="0.75"/>
<path d="M39.6225 109C39.1325 109 38.6925 108.915 38.3025 108.745C37.9125 108.575 37.6025 108.315 37.3725 107.965C37.1525 107.615 37.0425 107.17 37.0425 106.63C37.0425 106.2 37.2075 105.665 37.5375 105.025C37.8675 104.375 38.4425 103.69 39.2625 102.97L39.5475 103.78L38.5275 102.865L39.3075 101.935C39.8275 102.345 40.3075 102.785 40.7475 103.255C41.1875 103.725 41.5425 104.225 41.8125 104.755C42.0825 105.285 42.2175 105.845 42.2175 106.435C42.2175 106.665 42.1775 106.925 42.0975 107.215C42.0175 107.505 41.8825 107.79 41.6925 108.07C41.5025 108.34 41.2375 108.565 40.8975 108.745C40.5575 108.915 40.1325 109 39.6225 109ZM39.6225 107.77C39.9625 107.77 40.2425 107.715 40.4625 107.605C40.6925 107.485 40.8625 107.32 40.9725 107.11C41.0925 106.9 41.1525 106.655 41.1525 106.375C41.1525 106.125 41.1075 105.865 41.0175 105.595C40.9375 105.315 40.7675 105.015 40.5075 104.695C40.2575 104.365 39.8725 103.995 39.3525 103.585L40.0125 103.555C39.6425 103.875 39.3225 104.215 39.0525 104.575C38.7825 104.925 38.5775 105.27 38.4375 105.61C38.2975 105.94 38.2275 106.24 38.2275 106.51C38.2275 106.93 38.3575 107.245 38.6175 107.455C38.8875 107.665 39.2225 107.77 39.6225 107.77ZM47.0366 109.075C46.2366 109.075 45.6216 108.985 45.1916 108.805C44.7716 108.625 44.4816 108.345 44.3216 107.965C44.1616 107.585 44.0716 107.095 44.0516 106.495L43.7516 98.29H44.9816L45.2816 106.015C45.3016 106.505 45.3466 106.885 45.4166 107.155C45.4966 107.415 45.6666 107.595 45.9266 107.695C46.1966 107.795 46.6166 107.845 47.1866 107.845C47.3966 107.845 47.5466 107.905 47.6366 108.025C47.7366 108.135 47.7866 108.27 47.7866 108.43C47.7866 108.59 47.7166 108.74 47.5766 108.88C47.4366 109.01 47.2566 109.075 47.0366 109.075ZM47.0219 100.75L46.4669 99.91C46.8569 99.67 47.3219 99.385 47.8619 99.055C48.4119 98.725 49.0419 98.36 49.7519 97.96C50.4619 97.56 51.2469 97.135 52.1069 96.685L52.5269 97.6C51.6569 98.06 50.8819 98.48 50.2019 98.86C49.5319 99.24 48.9369 99.585 48.4169 99.895C47.8969 100.205 47.4319 100.49 47.0219 100.75ZM47.0369 109.075L47.1869 107.845H48.3419C49.1719 107.845 49.7869 107.8 50.1869 107.71C50.5869 107.62 50.8469 107.5 50.9669 107.35C51.0969 107.2 51.1619 107.045 51.1619 106.885C51.1619 106.645 51.0719 106.38 50.8919 106.09C50.7119 105.8 50.4819 105.505 50.2019 105.205C49.9219 104.895 49.6219 104.59 49.3019 104.29C48.9919 103.99 48.6969 103.715 48.4169 103.465C48.1369 103.215 47.9069 103 47.7269 102.82C47.5469 102.63 47.4569 102.495 47.4569 102.415C47.4569 102.265 47.4669 102.12 47.4869 101.98C47.5169 101.84 47.5519 101.71 47.5919 101.59C47.6419 101.47 47.7019 101.375 47.7719 101.305C47.9719 101.095 48.2469 100.875 48.5969 100.645C48.9469 100.405 49.3519 100.165 49.8119 99.925C50.2719 99.675 50.7619 99.425 51.2819 99.175C51.8019 98.915 52.3269 98.655 52.8569 98.395L53.3669 99.505C52.8869 99.745 52.4069 99.985 51.9269 100.225C51.4469 100.455 50.9819 100.685 50.5319 100.915C50.0819 101.145 49.6569 101.38 49.2569 101.62C48.8669 101.85 48.5119 102.085 48.1919 102.325L48.2819 101.815C48.7319 102.195 49.1569 102.56 49.5569 102.91C49.9569 103.26 50.3369 103.62 50.6969 103.99C51.0569 104.35 51.3919 104.74 51.7019 105.16C52.0119 105.58 52.3019 106.045 52.5719 106.555C52.7819 106.945 53.0269 107.23 53.3069 107.41C53.5869 107.59 53.8619 107.71 54.1319 107.77C54.4119 107.82 54.6369 107.845 54.8069 107.845C55.0169 107.845 55.1669 107.905 55.2569 108.025C55.3569 108.135 55.4069 108.27 55.4069 108.43C55.4069 108.59 55.3369 108.74 55.1969 108.88C55.0569 109.01 54.8769 109.075 54.6569 109.075C54.3869 109.075 54.0669 109.035 53.6969 108.955C53.3369 108.865 52.9819 108.695 52.6319 108.445C52.2819 108.195 51.9919 107.815 51.7619 107.305L52.2119 107.485C52.0619 107.755 51.8869 107.99 51.6869 108.19C51.4969 108.38 51.2519 108.545 50.9519 108.685C50.6519 108.815 50.2869 108.915 49.8569 108.985C49.4269 109.045 48.9019 109.075 48.2819 109.075H47.0369ZM54.6541 109.075L54.8041 107.845C55.1241 107.845 55.3841 107.825 55.5841 107.785C55.7841 107.735 55.9491 107.62 56.0791 107.44C56.2191 107.25 56.3491 106.955 56.4691 106.555C56.5891 106.155 56.7291 105.595 56.8891 104.875L58.0141 105.19C57.9741 105.36 57.9291 105.555 57.8791 105.775C57.8291 105.985 57.7841 106.205 57.7441 106.435C57.7041 106.655 57.6841 106.86 57.6841 107.05C57.6841 107.3 57.7791 107.495 57.9691 107.635C58.1591 107.775 58.5041 107.845 59.0041 107.845C59.3041 107.845 59.5491 107.82 59.7391 107.77C59.9291 107.72 60.0841 107.6 60.2041 107.41C60.3341 107.22 60.4491 106.915 60.5491 106.495C60.6491 106.075 60.7541 105.5 60.8641 104.77L62.0041 104.98C61.9741 105.16 61.9391 105.38 61.8991 105.64C61.8591 105.9 61.8191 106.16 61.7791 106.42C61.7491 106.67 61.7341 106.88 61.7341 107.05C61.7341 107.19 61.7641 107.325 61.8241 107.455C61.8941 107.575 62.0241 107.67 62.2141 107.74C62.4141 107.81 62.7091 107.845 63.0991 107.845C63.3891 107.845 63.6391 107.81 63.8491 107.74C64.0691 107.67 64.2341 107.54 64.3441 107.35C64.4641 107.16 64.5241 106.895 64.5241 106.555C64.5241 106.175 64.4341 105.7 64.2541 105.13C64.0841 104.55 63.8891 103.975 63.6691 103.405L64.8841 102.955C65.0141 103.275 65.1341 103.64 65.2441 104.05C65.3641 104.46 65.4641 104.865 65.5441 105.265C65.6241 105.665 65.6641 106.015 65.6641 106.315C65.6641 106.775 65.6041 107.18 65.4841 107.53C65.3641 107.88 65.1941 108.17 64.9741 108.4C64.7541 108.62 64.4841 108.79 64.1641 108.91C63.8441 109.02 63.4841 109.075 63.0841 109.075C62.6141 109.075 62.2291 109.02 61.9291 108.91C61.6291 108.8 61.3991 108.635 61.2391 108.415C61.0791 108.185 60.9741 107.895 60.9241 107.545H61.4341C61.2441 107.975 61.0441 108.3 60.8341 108.52C60.6241 108.74 60.3641 108.89 60.0541 108.97C59.7441 109.04 59.3341 109.075 58.8241 109.075C58.5741 109.075 58.3041 109.035 58.0141 108.955C57.7341 108.875 57.4891 108.72 57.2791 108.49C57.0691 108.25 56.9441 107.895 56.9041 107.425L57.3541 107.335C57.1841 107.845 56.9741 108.225 56.7241 108.475C56.4841 108.715 56.1941 108.875 55.8541 108.955C55.5141 109.035 55.1141 109.075 54.6541 109.075ZM61.1191 100.825C60.9091 100.825 60.7291 100.755 60.5791 100.615C60.4391 100.465 60.3691 100.29 60.3691 100.09C60.3691 99.89 60.4391 99.715 60.5791 99.565C60.7291 99.415 60.9091 99.34 61.1191 99.34C61.3191 99.34 61.4891 99.415 61.6291 99.565C61.7791 99.715 61.8541 99.89 61.8541 100.09C61.8541 100.29 61.7791 100.465 61.6291 100.615C61.4891 100.755 61.3191 100.825 61.1191 100.825ZM60.0991 102.475C59.8891 102.475 59.7091 102.405 59.5591 102.265C59.4191 102.115 59.3491 101.94 59.3491 101.74C59.3491 101.54 59.4191 101.365 59.5591 101.215C59.7091 101.065 59.8891 100.99 60.0991 100.99C60.2991 100.99 60.4691 101.065 60.6091 101.215C60.7591 101.365 60.8341 101.54 60.8341 101.74C60.8341 101.94 60.7591 102.115 60.6091 102.265C60.4691 102.405 60.2991 102.475 60.0991 102.475ZM62.1391 102.475C61.9291 102.475 61.7491 102.405 61.5991 102.265C61.4591 102.115 61.3891 101.94 61.3891 101.74C61.3891 101.54 61.4591 101.365 61.5991 101.215C61.7491 101.065 61.9291 100.99 62.1391 100.99C62.3391 100.99 62.5091 101.065 62.6491 101.215C62.7991 101.365 62.8741 101.54 62.8741 101.74C62.8741 101.94 62.7991 102.115 62.6491 102.265C62.5091 102.405 62.3391 102.475 62.1391 102.475ZM67.2867 112.45L67.0167 111.22C67.6167 111.14 68.1667 111.025 68.6667 110.875C69.1767 110.735 69.6117 110.53 69.9717 110.26C70.3417 109.99 70.6267 109.635 70.8267 109.195C71.0267 108.755 71.1267 108.205 71.1267 107.545C71.1267 107.235 71.0967 106.94 71.0367 106.66C70.9767 106.37 70.8867 106.115 70.7667 105.895C70.6467 105.675 70.5017 105.5 70.3317 105.37C70.1717 105.24 69.9867 105.175 69.7767 105.175C69.5467 105.175 69.3367 105.265 69.1467 105.445C68.9667 105.615 68.8217 105.835 68.7117 106.105C68.6117 106.375 68.5617 106.645 68.5617 106.915C68.5617 107.125 68.6017 107.31 68.6817 107.47C68.7717 107.62 68.9167 107.735 69.1167 107.815C69.3167 107.895 69.5767 107.935 69.8967 107.935C70.1867 107.935 70.4767 107.905 70.7667 107.845C71.0667 107.785 71.3217 107.705 71.5317 107.605L71.5917 108.655C71.3517 108.825 71.0667 108.945 70.7367 109.015C70.4167 109.085 70.0917 109.12 69.7617 109.12C69.3817 109.12 69.0417 109.08 68.7417 109C68.4517 108.92 68.2017 108.805 67.9917 108.655C67.7917 108.495 67.6367 108.295 67.5267 108.055C67.4267 107.815 67.3767 107.535 67.3767 107.215C67.3767 106.835 67.4367 106.455 67.5567 106.075C67.6767 105.685 67.8467 105.33 68.0667 105.01C68.2867 104.69 68.5517 104.435 68.8617 104.245C69.1717 104.045 69.5167 103.945 69.8967 103.945C70.2967 103.945 70.6467 104.05 70.9467 104.26C71.2467 104.46 71.4967 104.735 71.6967 105.085C71.8967 105.435 72.0467 105.83 72.1467 106.27C72.2467 106.71 72.2967 107.165 72.2967 107.635C72.2967 108.565 72.1067 109.365 71.7267 110.035C71.3567 110.715 70.7967 111.255 70.0467 111.655C69.3067 112.055 68.3867 112.32 67.2867 112.45ZM73.1857 112.48L72.7507 111.34C73.4807 111.1 74.0857 110.825 74.5657 110.515C75.0557 110.205 75.4407 109.875 75.7207 109.525C76.0107 109.175 76.2157 108.82 76.3357 108.46C76.4557 108.09 76.5157 107.735 76.5157 107.395C76.5157 106.905 76.4057 106.41 76.1857 105.91C75.9757 105.4 75.7407 104.92 75.4807 104.47L76.5757 103.915C76.7657 104.265 76.9307 104.61 77.0707 104.95C77.2207 105.29 77.3507 105.61 77.4607 105.91C77.5807 106.21 77.6757 106.485 77.7457 106.735C77.8857 107.165 78.0657 107.46 78.2857 107.62C78.5157 107.77 78.8257 107.845 79.2157 107.845C79.4257 107.845 79.5757 107.905 79.6657 108.025C79.7657 108.135 79.8157 108.27 79.8157 108.43C79.8157 108.59 79.7457 108.74 79.6057 108.88C79.4657 109.01 79.2857 109.075 79.0657 109.075C78.6257 109.075 78.2657 109 77.9857 108.85C77.7157 108.69 77.5107 108.485 77.3707 108.235C77.2307 107.975 77.1357 107.705 77.0857 107.425L77.5657 107.695C77.5657 108.355 77.4157 108.955 77.1157 109.495C76.8257 110.045 76.4507 110.52 75.9907 110.92C75.5307 111.33 75.0507 111.665 74.5507 111.925C74.0507 112.185 73.5957 112.37 73.1857 112.48ZM79.073 109.075L79.223 107.845C79.473 107.845 79.748 107.845 80.048 107.845C80.358 107.835 80.668 107.825 80.978 107.815C81.298 107.805 81.593 107.785 81.863 107.755C82.133 107.715 82.358 107.665 82.538 107.605C82.898 107.475 83.178 107.315 83.378 107.125C83.578 106.925 83.718 106.665 83.798 106.345C83.888 106.015 83.933 105.595 83.933 105.085C83.933 104.665 83.878 104.275 83.768 103.915C83.658 103.555 83.503 103.265 83.303 103.045C83.103 102.825 82.863 102.715 82.583 102.715C82.353 102.715 82.143 102.805 81.953 102.985C81.773 103.155 81.628 103.375 81.518 103.645C81.418 103.915 81.368 104.185 81.368 104.455C81.368 104.665 81.408 104.845 81.488 104.995C81.578 105.145 81.723 105.265 81.923 105.355C82.123 105.435 82.383 105.475 82.703 105.475C82.993 105.475 83.283 105.445 83.573 105.385C83.873 105.325 84.128 105.245 84.338 105.145L84.398 106.195C84.238 106.305 84.058 106.395 83.858 106.465C83.658 106.535 83.448 106.585 83.228 106.615C83.008 106.645 82.788 106.66 82.568 106.66C82.058 106.66 81.623 106.58 81.263 106.42C80.913 106.25 80.643 106.025 80.453 105.745C80.273 105.455 80.183 105.125 80.183 104.755C80.183 104.375 80.243 103.995 80.363 103.615C80.483 103.225 80.653 102.87 80.873 102.55C81.093 102.23 81.358 101.975 81.668 101.785C81.978 101.585 82.323 101.485 82.703 101.485C83.243 101.485 83.688 101.66 84.038 102.01C84.398 102.36 84.663 102.82 84.833 103.39C85.013 103.95 85.103 104.545 85.103 105.175C85.103 105.925 84.973 106.57 84.713 107.11C84.463 107.64 84.043 108.08 83.453 108.43C83.223 108.56 82.943 108.67 82.613 108.76C82.293 108.84 81.938 108.905 81.548 108.955C81.168 109.005 80.768 109.035 80.348 109.045C79.928 109.065 79.503 109.075 79.073 109.075ZM82.418 99.94C82.208 99.94 82.028 99.87 81.878 99.73C81.738 99.58 81.668 99.405 81.668 99.205C81.668 99.005 81.738 98.83 81.878 98.68C82.028 98.53 82.208 98.455 82.418 98.455C82.618 98.455 82.788 98.53 82.928 98.68C83.078 98.83 83.153 99.005 83.153 99.205C83.153 99.405 83.078 99.58 82.928 99.73C82.788 99.87 82.618 99.94 82.418 99.94Z" fill="#4C4C4C" fill-opacity="0.75"/>
</svg>
