<svg width="123" height="130" viewBox="0 0 123 130" fill="none" xmlns="http://www.w3.org/2000/svg">
<rect x="1.5" y="1.5" width="119.496" height="127" rx="8.5" fill="white" stroke="#9D3E20" stroke-width="3"/>
<path d="M64.294 33.8421C63.6284 32.4293 61.897 30.2894 58.9693 28.9008M81.7544 42.4886C80.849 51.1359 75.9345 57.3121 74.7705 69.665C73.6065 74.6062 72.8818 82.2747 70.1142 83.2537C67.3466 84.2328 65.0426 79.0187 63.1303 70.9008C61.9663 65.9596 60.8023 54.8419 59.6383 56.0772C57.9922 57.8242 57.3103 82.0184 51.4904 83.2537C47.4068 84.1205 46.0584 75.842 45.6704 73.3714C43.3427 59.7827 41.9716 61.6202 38.6863 51.1359C37.525 47.4297 37.5242 42.4886 37.5244 41.2533C37.5256 35.0768 39.8502 28.9009 50.3261 27.6656C53.9144 27.2425 56.7772 27.861 58.9693 28.9008M58.9693 28.9008C59.9683 28.0772 65.1973 26.0518 71.2785 27.6651C72.198 27.909 73.4404 28.2815 74.7505 28.9008" stroke="#9D3E20" stroke-width="3" stroke-linecap="round"/>
<path d="M58.4766 38.1766L65.6933 49.2942L86.4123 23.353" stroke="#9D3E20" stroke-width="3" stroke-linecap="round"/>
<path d="M19.0557 106.999C19.4891 106.999 19.8314 106.956 20.0827 106.869C20.3427 106.782 20.5291 106.657 20.6417 106.492C20.7631 106.319 20.8237 106.119 20.8237 105.894C20.8237 105.721 20.7761 105.513 20.6807 105.27C20.5941 105.027 20.4727 104.759 20.3167 104.464C20.1607 104.161 19.9787 103.844 19.7707 103.515C19.5714 103.177 19.3547 102.835 19.1207 102.488L20.0177 101.903C20.3557 102.414 20.6504 102.9 20.9017 103.359C21.1531 103.81 21.3654 104.234 21.5387 104.633C21.7121 105.023 21.8507 105.391 21.9547 105.738C22.0761 106.119 22.2104 106.401 22.3577 106.583C22.5137 106.765 22.6741 106.882 22.8387 106.934C23.0034 106.977 23.1551 106.999 23.2937 106.999C23.4757 106.999 23.6101 107.051 23.6967 107.155C23.7834 107.25 23.8267 107.367 23.8267 107.506C23.8267 107.645 23.7661 107.775 23.6447 107.896C23.5234 108.009 23.3674 108.065 23.1767 108.065C22.8907 108.065 22.6091 108.013 22.3317 107.909C22.0631 107.796 21.8291 107.619 21.6297 107.376C21.4304 107.125 21.2917 106.791 21.2137 106.375L21.7337 105.959C21.7337 106.306 21.6601 106.644 21.5127 106.973C21.3654 107.294 21.0967 107.558 20.7067 107.766C20.3254 107.974 19.7751 108.078 19.0557 108.078C18.7437 108.078 18.4404 108.052 18.1457 108C17.8597 107.948 17.5954 107.874 17.3527 107.779C17.1101 107.675 16.8977 107.554 16.7157 107.415L17.2357 106.518C17.4091 106.631 17.6517 106.739 17.9637 106.843C18.2757 106.947 18.6397 106.999 19.0557 106.999ZM23.1797 108.065L23.3097 106.999C23.6737 106.999 23.9597 106.969 24.1677 106.908C24.3757 106.839 24.5317 106.713 24.6357 106.531C24.7484 106.34 24.8437 106.067 24.9217 105.712C24.9997 105.357 25.095 104.893 25.2077 104.321L26.2217 104.516C26.187 104.672 26.148 104.845 26.1047 105.036C26.0614 105.227 26.0224 105.417 25.9877 105.608C25.9617 105.79 25.9487 105.95 25.9487 106.089C25.9487 106.262 25.9877 106.418 26.0657 106.557C26.1437 106.696 26.3127 106.804 26.5727 106.882C26.8327 106.96 27.2314 106.999 27.7687 106.999C27.9507 106.999 28.0807 107.051 28.1587 107.155C28.2454 107.25 28.2887 107.367 28.2887 107.506C28.2887 107.645 28.228 107.775 28.1067 107.896C27.9854 108.009 27.8294 108.065 27.6387 108.065C27.0754 108.065 26.6334 108.017 26.3127 107.922C25.992 107.818 25.758 107.666 25.6107 107.467C25.4634 107.259 25.3637 107.008 25.3117 106.713L25.7017 106.739C25.563 107.016 25.4114 107.242 25.2467 107.415C25.0907 107.588 24.9174 107.723 24.7267 107.818C24.536 107.913 24.315 107.978 24.0637 108.013C23.8124 108.048 23.5177 108.065 23.1797 108.065ZM25.2077 102.982C25.0257 102.982 24.8697 102.921 24.7397 102.8C24.6184 102.67 24.5577 102.518 24.5577 102.345C24.5577 102.172 24.6184 102.02 24.7397 101.89C24.8697 101.76 25.0257 101.695 25.2077 101.695C25.381 101.695 25.5284 101.76 25.6497 101.89C25.7797 102.02 25.8447 102.172 25.8447 102.345C25.8447 102.518 25.7797 102.67 25.6497 102.8C25.5284 102.921 25.381 102.982 25.2077 102.982ZM35.9167 108.065C35.5527 108.065 35.2191 108.043 34.9157 108C34.6124 107.948 34.3394 107.857 34.0967 107.727C33.8541 107.597 33.6504 107.411 33.4857 107.168C33.3211 106.917 33.1954 106.587 33.1087 106.18L33.8757 105.725C33.9884 106.072 34.1271 106.336 34.2917 106.518C34.4564 106.7 34.6774 106.826 34.9547 106.895C35.2407 106.964 35.6047 106.999 36.0467 106.999C36.2287 106.999 36.3587 107.051 36.4367 107.155C36.5234 107.25 36.5667 107.367 36.5667 107.506C36.5667 107.645 36.5061 107.775 36.3847 107.896C36.2634 108.009 36.1074 108.065 35.9167 108.065ZM27.6357 108.065L27.7527 106.999C28.2034 106.999 28.6454 106.964 29.0787 106.895C29.5121 106.826 29.9367 106.726 30.3527 106.596C30.7687 106.466 31.1674 106.31 31.5487 106.128C31.9387 105.937 32.3071 105.721 32.6537 105.478C32.4284 105.279 32.1684 105.105 31.8737 104.958C31.5791 104.811 31.2541 104.698 30.8987 104.62C30.5521 104.533 30.1837 104.49 29.7937 104.49C29.6551 104.49 29.5251 104.494 29.4037 104.503C29.2824 104.512 29.1611 104.529 29.0397 104.555C28.9184 104.572 28.7797 104.598 28.6237 104.633L28.4157 103.645C28.6497 103.576 28.8837 103.524 29.1177 103.489C29.3517 103.446 29.5771 103.424 29.7937 103.424C30.2444 103.424 30.6517 103.48 31.0157 103.593C31.3797 103.697 31.7091 103.827 32.0037 103.983C32.3071 104.139 32.5887 104.295 32.8487 104.451C33.1174 104.607 33.3774 104.741 33.6287 104.854C33.8801 104.958 34.1401 105.01 34.4087 105.01H34.6817L34.7727 105.946C34.4001 105.946 34.0577 105.998 33.7457 106.102C33.4337 106.206 33.1261 106.34 32.8227 106.505C32.5281 106.661 32.2161 106.83 31.8867 107.012C31.5574 107.185 31.1934 107.354 30.7947 107.519C30.3961 107.675 29.9367 107.805 29.4167 107.909C28.9054 108.013 28.3117 108.065 27.6357 108.065ZM29.6767 102.085C29.4947 102.085 29.3387 102.024 29.2087 101.903C29.0874 101.773 29.0267 101.621 29.0267 101.448C29.0267 101.275 29.0874 101.123 29.2087 100.993C29.3387 100.863 29.4947 100.798 29.6767 100.798C29.8501 100.798 29.9974 100.863 30.1187 100.993C30.2487 101.123 30.3137 101.275 30.3137 101.448C30.3137 101.621 30.2487 101.773 30.1187 101.903C29.9974 102.024 29.8501 102.085 29.6767 102.085ZM35.9131 108.065L36.0431 106.999C36.4071 106.999 36.6931 106.969 36.9011 106.908C37.1091 106.839 37.2651 106.713 37.3691 106.531C37.4818 106.34 37.5771 106.067 37.6551 105.712C37.7331 105.357 37.8284 104.893 37.9411 104.321L38.9551 104.516C38.9204 104.672 38.8814 104.845 38.8381 105.036C38.7948 105.227 38.7558 105.417 38.7211 105.608C38.6951 105.79 38.6821 105.95 38.6821 106.089C38.6821 106.262 38.7211 106.418 38.7991 106.557C38.8771 106.696 39.0461 106.804 39.3061 106.882C39.5661 106.96 39.9648 106.999 40.5021 106.999C40.6841 106.999 40.8141 107.051 40.8921 107.155C40.9788 107.25 41.0221 107.367 41.0221 107.506C41.0221 107.645 40.9614 107.775 40.8401 107.896C40.7188 108.009 40.5628 108.065 40.3721 108.065C39.8088 108.065 39.3668 108.017 39.0461 107.922C38.7254 107.818 38.4914 107.666 38.3441 107.467C38.1968 107.259 38.0971 107.008 38.0451 106.713L38.4351 106.739C38.2964 107.016 38.1448 107.242 37.9801 107.415C37.8241 107.588 37.6508 107.723 37.4601 107.818C37.2694 107.913 37.0484 107.978 36.7971 108.013C36.5458 108.048 36.2511 108.065 35.9131 108.065ZM38.1231 110.483C37.9411 110.483 37.7851 110.418 37.6551 110.288C37.5338 110.167 37.4731 110.019 37.4731 109.846C37.4731 109.673 37.5338 109.521 37.6551 109.391C37.7851 109.261 37.9411 109.196 38.1231 109.196C38.2964 109.196 38.4438 109.261 38.5651 109.391C38.6951 109.521 38.7601 109.673 38.7601 109.846C38.7601 110.019 38.6951 110.167 38.5651 110.288C38.4438 110.418 38.2964 110.483 38.1231 110.483ZM40.3691 108.065L40.4861 106.999C40.9801 106.999 41.3268 106.951 41.5261 106.856C41.7255 106.761 41.8381 106.592 41.8641 106.349C41.8988 106.106 41.9075 105.768 41.8901 105.335L41.6431 98.718H42.6961L42.9561 105.218C42.9735 105.677 42.9561 106.085 42.9041 106.44C42.8608 106.795 42.7481 107.094 42.5661 107.337C42.3928 107.58 42.1285 107.762 41.7731 107.883C41.4265 108.004 40.9585 108.065 40.3691 108.065ZM52.0823 113.122C51.4757 113.122 50.895 113.053 50.3403 112.914C49.7943 112.775 49.309 112.559 48.8843 112.264C48.4683 111.978 48.139 111.614 47.8963 111.172C47.6537 110.73 47.5323 110.21 47.5323 109.612C47.5323 109.109 47.606 108.628 47.7533 108.169C47.9007 107.718 48.113 107.294 48.3903 106.895C48.6763 106.488 49.023 106.115 49.4303 105.777C49.8377 105.439 50.3013 105.14 50.8213 104.88C51.3413 104.611 51.909 104.386 52.5243 104.204L52.3813 104.373C52.156 104.304 51.9263 104.23 51.6923 104.152C51.4583 104.065 51.2157 103.987 50.9643 103.918C50.713 103.84 50.4443 103.779 50.1583 103.736C49.8723 103.693 49.5647 103.671 49.2353 103.671C48.9753 103.671 48.7457 103.693 48.5463 103.736C48.3557 103.779 48.1737 103.823 48.0003 103.866L47.8183 102.904C48.0437 102.809 48.295 102.735 48.5723 102.683C48.8583 102.622 49.1443 102.592 49.4303 102.592C49.829 102.592 50.1843 102.631 50.4963 102.709C50.8083 102.778 51.103 102.865 51.3803 102.969C51.6663 103.073 51.9653 103.181 52.2773 103.294C52.5893 103.398 52.936 103.489 53.3173 103.567C53.7073 103.636 54.1667 103.675 54.6953 103.684H54.8123L54.8383 104.75C54.4223 104.75 53.9803 104.798 53.5123 104.893C53.0443 104.988 52.5763 105.127 52.1083 105.309C51.649 105.491 51.207 105.716 50.7823 105.985C50.3577 106.254 49.9807 106.566 49.6513 106.921C49.3307 107.268 49.075 107.653 48.8843 108.078C48.6937 108.511 48.5983 108.979 48.5983 109.482C48.5983 109.933 48.6937 110.318 48.8843 110.639C49.075 110.968 49.335 111.237 49.6643 111.445C50.0023 111.653 50.388 111.805 50.8213 111.9C51.2633 111.995 51.727 112.043 52.2123 112.043C52.637 112.043 53.0703 111.995 53.5123 111.9C53.963 111.813 54.4007 111.688 54.8253 111.523L55.1893 112.407C54.6867 112.65 54.171 112.827 53.6423 112.94C53.1137 113.061 52.5937 113.122 52.0823 113.122ZM55.7571 111.016L55.3801 110.028C56.0127 109.82 56.5371 109.582 56.9531 109.313C57.3777 109.044 57.7114 108.758 57.9541 108.455C58.2054 108.152 58.3831 107.844 58.4871 107.532C58.5911 107.211 58.6431 106.904 58.6431 106.609C58.6431 106.184 58.5477 105.755 58.3571 105.322C58.1751 104.88 57.9714 104.464 57.7461 104.074L58.6951 103.593C58.8597 103.896 59.0027 104.195 59.1241 104.49C59.2541 104.785 59.3667 105.062 59.4621 105.322C59.5661 105.582 59.6484 105.82 59.7091 106.037C59.8304 106.41 59.9864 106.665 60.1771 106.804C60.3764 106.934 60.6451 106.999 60.9831 106.999C61.1651 106.999 61.2951 107.051 61.3731 107.155C61.4597 107.25 61.5031 107.367 61.5031 107.506C61.5031 107.645 61.4424 107.775 61.3211 107.896C61.1997 108.009 61.0437 108.065 60.8531 108.065C60.4717 108.065 60.1597 108 59.9171 107.87C59.6831 107.731 59.5054 107.554 59.3841 107.337C59.2627 107.112 59.1804 106.878 59.1371 106.635L59.5531 106.869C59.5531 107.441 59.4231 107.961 59.1631 108.429C58.9117 108.906 58.5867 109.317 58.1881 109.664C57.7894 110.019 57.3734 110.31 56.9401 110.535C56.5067 110.76 56.1124 110.921 55.7571 111.016ZM60.8594 108.065L60.9894 106.999H63.7064C64.4604 106.999 65.1104 106.969 65.6564 106.908C66.211 106.839 66.666 106.739 67.0214 106.609C67.3767 106.479 67.641 106.314 67.8144 106.115C67.9877 105.907 68.0744 105.664 68.0744 105.387C68.0744 105.24 68.0267 105.079 67.9314 104.906C67.836 104.733 67.6887 104.585 67.4894 104.464C67.29 104.334 67.0257 104.269 66.6964 104.269C66.2804 104.269 65.8644 104.377 65.4484 104.594C65.041 104.811 64.651 105.084 64.2784 105.413C63.9144 105.734 63.5894 106.063 63.3034 106.401C63.0174 106.739 62.7877 107.034 62.6144 107.285L61.4834 107.246C61.7607 106.795 62.09 106.336 62.4714 105.868C62.8614 105.391 63.286 104.954 63.7454 104.555C64.2134 104.148 64.703 103.823 65.2144 103.58C65.7257 103.329 66.2457 103.203 66.7744 103.203C67.251 103.203 67.6584 103.303 67.9964 103.502C68.343 103.693 68.6074 103.953 68.7894 104.282C68.98 104.611 69.0754 104.984 69.0754 105.4C69.0754 105.807 68.928 106.219 68.6334 106.635C68.3387 107.042 67.8317 107.363 67.1124 107.597C66.7484 107.718 66.3324 107.814 65.8644 107.883C65.3964 107.952 64.8634 108 64.2654 108.026C63.6674 108.052 62.987 108.065 62.2244 108.065H60.8594ZM62.0944 106.778L61.8344 98.718H62.8874L63.1474 105.868L62.0944 106.778ZM77.9935 113.122C77.3868 113.122 76.8061 113.053 76.2515 112.914C75.7055 112.775 75.2201 112.559 74.7955 112.264C74.3795 111.978 74.0501 111.614 73.8075 111.172C73.5648 110.73 73.4435 110.21 73.4435 109.612C73.4435 109.109 73.5171 108.628 73.6645 108.169C73.8118 107.718 74.0241 107.294 74.3015 106.895C74.5875 106.488 74.9341 106.115 75.3415 105.777C75.7488 105.439 76.2125 105.14 76.7325 104.88C77.2525 104.611 77.8201 104.386 78.4355 104.204L78.2925 104.373C78.0671 104.304 77.8375 104.23 77.6035 104.152C77.3695 104.065 77.1268 103.987 76.8755 103.918C76.6241 103.84 76.3555 103.779 76.0695 103.736C75.7835 103.693 75.4758 103.671 75.1465 103.671C74.8865 103.671 74.6568 103.693 74.4575 103.736C74.2668 103.779 74.0848 103.823 73.9115 103.866L73.7295 102.904C73.9548 102.809 74.2061 102.735 74.4835 102.683C74.7695 102.622 75.0555 102.592 75.3415 102.592C75.7401 102.592 76.0955 102.631 76.4075 102.709C76.7195 102.778 77.0141 102.865 77.2915 102.969C77.5775 103.073 77.8765 103.181 78.1885 103.294C78.5005 103.398 78.8471 103.489 79.2285 103.567C79.6185 103.636 80.0778 103.675 80.6065 103.684H80.7235L80.7495 104.75C80.3335 104.75 79.8915 104.798 79.4235 104.893C78.9555 104.988 78.4875 105.127 78.0195 105.309C77.5601 105.491 77.1181 105.716 76.6935 105.985C76.2688 106.254 75.8918 106.566 75.5625 106.921C75.2418 107.268 74.9861 107.653 74.7955 108.078C74.6048 108.511 74.5095 108.979 74.5095 109.482C74.5095 109.933 74.6048 110.318 74.7955 110.639C74.9861 110.968 75.2461 111.237 75.5755 111.445C75.9135 111.653 76.2991 111.805 76.7325 111.9C77.1745 111.995 77.6381 112.043 78.1235 112.043C78.5481 112.043 78.9815 111.995 79.4235 111.9C79.8741 111.813 80.3118 111.688 80.7365 111.523L81.1005 112.407C80.5978 112.65 80.0821 112.827 79.5535 112.94C79.0248 113.061 78.5048 113.122 77.9935 113.122ZM89.4032 108.065C88.8832 108.065 88.4542 108.022 88.1162 107.935C87.7869 107.848 87.5269 107.714 87.3362 107.532C87.1542 107.35 87.0242 107.12 86.9462 106.843C86.8769 106.557 86.8335 106.219 86.8162 105.829L86.5562 98.718H87.6222L87.8822 105.413C87.8995 105.838 87.9385 106.167 87.9992 106.401C88.0685 106.626 88.2159 106.782 88.4412 106.869C88.6752 106.956 89.0392 106.999 89.5332 106.999C89.7152 106.999 89.8452 107.051 89.9232 107.155C90.0099 107.25 90.0532 107.367 90.0532 107.506C90.0532 107.645 89.9925 107.775 89.8712 107.896C89.7499 108.009 89.5939 108.065 89.4032 108.065ZM83.4622 108.065C83.2282 108.065 82.9899 108.043 82.7472 108C82.5132 107.965 82.3485 107.939 82.2532 107.922L82.3962 106.895C82.9942 106.973 83.5575 106.986 84.0862 106.934C84.6149 106.882 85.0742 106.735 85.4642 106.492C85.8629 106.241 86.1749 105.864 86.4002 105.361C86.6255 104.858 86.7382 104.204 86.7382 103.398L87.3622 104.958C87.2582 105.504 87.1022 105.963 86.8942 106.336C86.6862 106.7 86.4435 106.999 86.1662 107.233C85.8975 107.458 85.6072 107.632 85.2952 107.753C84.9832 107.874 84.6712 107.957 84.3592 108C84.0472 108.043 83.7482 108.065 83.4622 108.065ZM86.2832 106.284C86.1445 106.015 85.9495 105.703 85.6982 105.348C85.4469 104.984 85.1435 104.59 84.7882 104.165C84.4329 103.74 84.0299 103.298 83.5792 102.839C83.1372 102.38 82.6562 101.916 82.1362 101.448L82.8382 100.707C83.4102 101.253 83.9172 101.764 84.3592 102.241C84.8099 102.709 85.2042 103.151 85.5422 103.567C85.8802 103.974 86.1705 104.347 86.4132 104.685C86.6559 105.023 86.8595 105.331 87.0242 105.608L86.2832 106.284ZM95.6904 108.234C94.9278 108.234 94.2864 108.204 93.7664 108.143C93.2551 108.091 92.8391 108.009 92.5184 107.896C92.1978 107.783 91.9551 107.64 91.7904 107.467C91.6258 107.294 91.5131 107.086 91.4524 106.843L91.7514 106.739C91.5348 107.155 91.3008 107.458 91.0494 107.649C90.7981 107.831 90.5338 107.948 90.2564 108C89.9878 108.043 89.7018 108.065 89.3984 108.065L89.5284 106.999C89.8318 106.999 90.0788 106.956 90.2694 106.869C90.4688 106.782 90.6291 106.639 90.7504 106.44C90.8804 106.241 90.9931 105.976 91.0884 105.647C91.1838 105.318 91.2878 104.91 91.4004 104.425L92.3494 104.672C92.2974 104.871 92.2498 105.062 92.2064 105.244C92.1631 105.426 92.1284 105.586 92.1024 105.725C92.0851 105.855 92.0764 105.959 92.0764 106.037C92.0764 106.245 92.1241 106.423 92.2194 106.57C92.3148 106.709 92.4968 106.826 92.7654 106.921C93.0341 107.008 93.4198 107.073 93.9224 107.116C94.4338 107.151 95.1011 107.168 95.9244 107.168C96.4964 107.168 97.0078 107.133 97.4584 107.064C97.9091 106.995 98.2861 106.891 98.5894 106.752C98.9014 106.605 99.1398 106.427 99.3044 106.219C99.4691 106.011 99.5514 105.773 99.5514 105.504C99.5514 105.313 99.5038 105.127 99.4084 104.945C99.3131 104.754 99.1658 104.594 98.9664 104.464C98.7671 104.334 98.5028 104.269 98.1734 104.269C97.7574 104.269 97.3414 104.377 96.9254 104.594C96.5181 104.811 96.1281 105.084 95.7554 105.413C95.3914 105.734 95.0664 106.063 94.7804 106.401C94.4944 106.739 94.2648 107.034 94.0914 107.285L92.9604 107.246C93.2378 106.795 93.5671 106.336 93.9484 105.868C94.3384 105.391 94.7631 104.954 95.2224 104.555C95.6904 104.148 96.1801 103.823 96.6914 103.58C97.2028 103.329 97.7228 103.203 98.2514 103.203C98.7281 103.203 99.1354 103.303 99.4734 103.502C99.8201 103.693 100.084 103.953 100.266 104.282C100.457 104.611 100.552 104.984 100.552 105.4C100.552 105.911 100.401 106.384 100.097 106.817C99.8028 107.242 99.3001 107.584 98.5894 107.844C97.8788 108.104 96.9124 108.234 95.6904 108.234ZM102.338 108L102.078 98.718H103.131L103.391 108H102.338Z" fill="#9D3E20"/>
</svg>
