<svg width="123" height="130" viewBox="0 0 123 130" fill="none" xmlns="http://www.w3.org/2000/svg">
<rect x="1.5" y="1.5" width="119.496" height="127" rx="8.5" fill="white" stroke="#9D3E20" stroke-width="3"/>
<g clip-path="url(#clip0_173_563)">
<path d="M61.5754 18.353C46.1484 18.353 33.6396 31.628 33.6396 48.0001C33.6396 64.3721 46.1484 77.6471 61.5754 77.6471C77.0024 77.6471 89.5112 64.3721 89.5112 48.0001C89.5112 31.628 77.0024 18.353 61.5754 18.353ZM61.5754 72.6177C48.7674 72.6177 38.3788 61.5927 38.3788 48.0001C38.3788 34.4074 48.7674 23.3824 61.5754 23.3824C74.3835 23.3824 84.7721 34.4074 84.7721 48.0001C84.7721 61.5927 74.3835 72.6177 61.5754 72.6177ZM64.5498 46.4648L62.966 46.0743V37.1868C65.3355 37.531 66.8009 39.106 67.0503 41.0383C67.0815 41.303 67.2935 41.4949 67.5429 41.4949H70.3427C70.6358 41.4949 70.8665 41.2236 70.8416 40.9126C70.4612 36.7898 67.2623 34.1427 62.9909 33.6861V31.5221C62.9909 31.231 62.7664 30.9927 62.4921 30.9927H60.7398C60.4655 30.9927 60.241 31.231 60.241 31.5221V33.706C55.8261 34.1626 52.3716 36.7501 52.3716 41.581C52.3716 46.0545 55.4769 48.2118 58.7382 49.0391L60.2784 49.456V58.8993C57.5222 58.5089 55.9758 56.9471 55.6578 54.8427C55.6204 54.5913 55.4083 54.406 55.1652 54.406H52.2843C51.9912 54.406 51.7605 54.6707 51.7854 54.9817C52.066 58.6214 54.6663 61.9699 60.216 62.4001V64.478C60.216 64.7692 60.4405 65.0074 60.7149 65.0074H62.4858C62.7602 65.0074 62.9847 64.7692 62.9847 64.4714L62.9722 62.3736C67.8547 61.917 71.3467 59.1442 71.3467 54.1677C71.3405 49.5751 68.5905 47.5236 64.5498 46.4648ZM60.2722 45.3927C59.923 45.2868 59.6299 45.1876 59.3368 45.0618C57.2292 44.2545 56.2502 42.9508 56.2502 41.2699C56.2502 38.8677 57.965 37.4979 60.2722 37.1868V45.3927ZM62.966 58.9192V50.0714C63.1593 50.131 63.3339 50.1773 63.5147 50.217C66.4642 51.1699 67.4556 52.4935 67.4556 54.5251C67.4556 57.1126 65.6224 58.6677 62.966 58.9192Z" fill="#9D3E20"/>
</g>
<path d="M30.6618 108.273L30.9998 107.207C32.0138 107.207 32.8848 107.181 33.6128 107.129C34.3495 107.077 34.9518 106.995 35.4198 106.882C35.8965 106.761 36.2475 106.6 36.4728 106.401C36.7068 106.193 36.8238 105.942 36.8238 105.647C36.8238 105.318 36.7631 104.936 36.6418 104.503C36.5205 104.07 36.3645 103.606 36.1738 103.112L37.1748 102.761C37.2875 103.038 37.3915 103.337 37.4868 103.658C37.5908 103.97 37.6775 104.282 37.7468 104.594C37.8161 104.897 37.8508 105.179 37.8508 105.439C37.8508 105.95 37.7338 106.388 37.4998 106.752C37.2658 107.107 36.8758 107.398 36.3298 107.623C35.7838 107.848 35.0471 108.013 34.1198 108.117C33.2011 108.221 32.0485 108.273 30.6618 108.273ZM30.6618 108.273C29.8905 108.273 29.2101 108.221 28.6208 108.117C28.0401 108.022 27.5548 107.87 27.1648 107.662C26.7748 107.454 26.4801 107.185 26.2808 106.856C26.0815 106.518 25.9818 106.111 25.9818 105.634C25.9818 105.417 25.9991 105.196 26.0338 104.971C26.0685 104.737 26.1118 104.503 26.1638 104.269C26.2245 104.035 26.2851 103.81 26.3458 103.593L27.3208 103.84C27.2861 103.97 27.2471 104.126 27.2038 104.308C27.1605 104.481 27.1215 104.659 27.0868 104.841C27.0608 105.023 27.0478 105.188 27.0478 105.335C27.0478 105.786 27.1605 106.15 27.3858 106.427C27.6198 106.696 28.0228 106.895 28.5948 107.025C29.1668 107.146 29.9685 107.207 30.9998 107.207L31.2598 107.857L30.6618 108.273ZM32.8328 102.787C32.6508 102.787 32.4948 102.726 32.3648 102.605C32.2435 102.475 32.1828 102.323 32.1828 102.15C32.1828 101.977 32.2435 101.825 32.3648 101.695C32.4948 101.565 32.6508 101.5 32.8328 101.5C33.0061 101.5 33.1535 101.565 33.2748 101.695C33.4048 101.825 33.4698 101.977 33.4698 102.15C33.4698 102.323 33.4048 102.475 33.2748 102.605C33.1535 102.726 33.0061 102.787 32.8328 102.787ZM31.0518 102.787C30.8698 102.787 30.7138 102.726 30.5838 102.605C30.4625 102.475 30.4018 102.323 30.4018 102.15C30.4018 101.977 30.4625 101.825 30.5838 101.695C30.7138 101.565 30.8698 101.5 31.0518 101.5C31.2251 101.5 31.3725 101.565 31.4938 101.695C31.6238 101.825 31.6888 101.977 31.6888 102.15C31.6888 102.323 31.6238 102.475 31.4938 102.605C31.3725 102.726 31.2251 102.787 31.0518 102.787ZM42.2859 108.065C41.5926 108.065 41.0596 107.987 40.6869 107.831C40.3229 107.675 40.0716 107.432 39.9329 107.103C39.7943 106.774 39.7163 106.349 39.6989 105.829L39.4389 98.718H40.5049L40.7649 105.413C40.7823 105.838 40.8213 106.167 40.8819 106.401C40.9513 106.626 41.0986 106.782 41.3239 106.869C41.5579 106.956 41.9219 106.999 42.4159 106.999C42.5979 106.999 42.7279 107.051 42.8059 107.155C42.8926 107.25 42.9359 107.367 42.9359 107.506C42.9359 107.645 42.8753 107.775 42.7539 107.896C42.6326 108.009 42.4766 108.065 42.2859 108.065ZM42.2861 108.065L42.4161 106.999C42.6588 106.999 42.8625 106.947 43.0271 106.843C43.1918 106.739 43.3521 106.566 43.5081 106.323C43.6641 106.08 43.8331 105.755 44.0151 105.348C44.2665 104.793 44.5135 104.373 44.7561 104.087C45.0075 103.801 45.2545 103.606 45.4971 103.502C45.7485 103.398 45.9955 103.346 46.2381 103.346C46.5328 103.346 46.8058 103.424 47.0571 103.58C47.3085 103.727 47.5295 103.927 47.7201 104.178C47.9108 104.429 48.0581 104.707 48.1621 105.01C48.2748 105.305 48.3311 105.599 48.3311 105.894C48.3311 106.414 48.2401 106.83 48.0581 107.142C47.8761 107.445 47.6421 107.666 47.3561 107.805C47.0788 107.935 46.7885 108 46.4851 108C46.2165 108 45.8698 107.948 45.4451 107.844C45.0291 107.74 44.5005 107.476 43.8591 107.051L44.3661 106.232C44.7908 106.501 45.1721 106.687 45.5101 106.791C45.8568 106.886 46.1428 106.934 46.3681 106.934C46.6195 106.934 46.8188 106.899 46.9661 106.83C47.1135 106.752 47.2218 106.644 47.2911 106.505C47.3605 106.366 47.3951 106.21 47.3951 106.037C47.3951 105.786 47.3345 105.534 47.2131 105.283C47.0918 105.032 46.9358 104.824 46.7451 104.659C46.5631 104.494 46.3681 104.412 46.1601 104.412C46.0041 104.412 45.8525 104.455 45.7051 104.542C45.5578 104.629 45.4061 104.789 45.2501 105.023C45.0941 105.257 44.9165 105.595 44.7171 106.037C44.5091 106.505 44.3098 106.878 44.1191 107.155C43.9371 107.424 43.7508 107.623 43.5601 107.753C43.3695 107.883 43.1701 107.965 42.9621 108C42.7628 108.043 42.5375 108.065 42.2861 108.065ZM51.9112 106.999C52.3445 106.999 52.6869 106.956 52.9382 106.869C53.1982 106.782 53.3845 106.657 53.4972 106.492C53.6185 106.319 53.6792 106.119 53.6792 105.894C53.6792 105.721 53.6315 105.513 53.5362 105.27C53.4495 105.027 53.3282 104.759 53.1722 104.464C53.0162 104.161 52.8342 103.844 52.6262 103.515C52.4269 103.177 52.2102 102.835 51.9762 102.488L52.8732 101.903C53.2112 102.414 53.5059 102.9 53.7572 103.359C54.0085 103.81 54.2209 104.234 54.3942 104.633C54.5675 105.023 54.7062 105.391 54.8102 105.738C54.9315 106.119 55.0659 106.401 55.2132 106.583C55.3692 106.765 55.5295 106.882 55.6942 106.934C55.8589 106.977 56.0105 106.999 56.1492 106.999C56.3312 106.999 56.4655 107.051 56.5522 107.155C56.6389 107.25 56.6822 107.367 56.6822 107.506C56.6822 107.645 56.6215 107.775 56.5002 107.896C56.3789 108.009 56.2229 108.065 56.0322 108.065C55.7462 108.065 55.4645 108.013 55.1872 107.909C54.9185 107.796 54.6845 107.619 54.4852 107.376C54.2859 107.125 54.1472 106.791 54.0692 106.375L54.5892 105.959C54.5892 106.306 54.5155 106.644 54.3682 106.973C54.2209 107.294 53.9522 107.558 53.5622 107.766C53.1809 107.974 52.6305 108.078 51.9112 108.078C51.5992 108.078 51.2959 108.052 51.0012 108C50.7152 107.948 50.4509 107.874 50.2082 107.779C49.9655 107.675 49.7532 107.554 49.5712 107.415L50.0912 106.518C50.2645 106.631 50.5072 106.739 50.8192 106.843C51.1312 106.947 51.4952 106.999 51.9112 106.999ZM56.0352 108.065L56.1522 106.999C56.6028 106.999 57.0448 106.964 57.4782 106.895C57.9115 106.826 58.3362 106.726 58.7522 106.596C59.1682 106.466 59.5668 106.31 59.9482 106.128C60.3382 105.937 60.7065 105.721 61.0532 105.478C60.8278 105.279 60.5678 105.105 60.2732 104.958C59.9785 104.811 59.6535 104.698 59.2982 104.62C58.9515 104.533 58.5832 104.49 58.1932 104.49C58.0545 104.49 57.9245 104.494 57.8032 104.503C57.6818 104.512 57.5605 104.529 57.4392 104.555C57.3178 104.572 57.1792 104.598 57.0232 104.633L56.8152 103.645C57.0492 103.576 57.2832 103.524 57.5172 103.489C57.7512 103.446 57.9765 103.424 58.1932 103.424C58.6438 103.424 59.0512 103.48 59.4152 103.593C59.7792 103.697 60.1085 103.827 60.4032 103.983C60.7065 104.139 60.9882 104.295 61.2482 104.451C61.5168 104.607 61.7768 104.741 62.0282 104.854C62.2795 104.958 62.5395 105.01 62.8082 105.01H63.0812L63.1722 105.946C62.7995 105.946 62.4572 105.998 62.1452 106.102C61.8332 106.206 61.5255 106.34 61.2222 106.505C60.9275 106.661 60.6155 106.83 60.2862 107.012C59.9568 107.185 59.5928 107.354 59.1942 107.519C58.7955 107.675 58.3362 107.805 57.8162 107.909C57.3048 108.013 56.7112 108.065 56.0352 108.065ZM58.2062 102.085C58.0242 102.085 57.8682 102.024 57.7382 101.903C57.6168 101.773 57.5562 101.621 57.5562 101.448C57.5562 101.275 57.6168 101.123 57.7382 100.993C57.8682 100.863 58.0242 100.798 58.2062 100.798C58.3795 100.798 58.5268 100.863 58.6482 100.993C58.7782 101.123 58.8432 101.275 58.8432 101.448C58.8432 101.621 58.7782 101.773 58.6482 101.903C58.5268 102.024 58.3795 102.085 58.2062 102.085ZM73.6647 108.065C73.1967 108.065 72.7807 108 72.4167 107.87C72.0613 107.731 71.7753 107.502 71.5587 107.181C71.3507 106.852 71.2337 106.397 71.2077 105.816L70.9997 101.292H72.0527L72.2607 105.582C72.2867 105.989 72.3603 106.297 72.4817 106.505C72.603 106.704 72.772 106.839 72.9887 106.908C73.214 106.969 73.4827 106.999 73.7947 106.999C73.9767 106.999 74.1067 107.051 74.1847 107.155C74.2713 107.25 74.3147 107.367 74.3147 107.506C74.3147 107.645 74.254 107.775 74.1327 107.896C74.0113 108.009 73.8553 108.065 73.6647 108.065ZM71.7017 106.635C71.2077 106.791 70.7267 106.869 70.2587 106.869C69.7907 106.869 69.366 106.8 68.9847 106.661C68.6033 106.522 68.3 106.323 68.0747 106.063C67.8493 105.794 67.7367 105.474 67.7367 105.101C67.7367 104.737 67.8277 104.395 68.0097 104.074C68.2003 103.753 68.456 103.467 68.7767 103.216C69.106 102.965 69.483 102.757 69.9077 102.592C70.341 102.419 70.8003 102.302 71.2857 102.241L71.4677 103.333C71.0343 103.35 70.6487 103.411 70.3107 103.515C69.9813 103.61 69.6997 103.736 69.4657 103.892C69.2403 104.048 69.067 104.217 68.9457 104.399C68.8243 104.581 68.7637 104.759 68.7637 104.932C68.7637 105.123 68.833 105.279 68.9717 105.4C69.1103 105.521 69.288 105.617 69.5047 105.686C69.7213 105.747 69.9597 105.786 70.2197 105.803C70.4797 105.812 70.731 105.803 70.9737 105.777C71.2163 105.742 71.4243 105.695 71.5977 105.634L71.7017 106.635ZM73.6689 108.065L73.7989 106.999C74.0156 106.999 74.2539 106.999 74.5139 106.999C74.7826 106.99 75.0513 106.982 75.3199 106.973C75.5973 106.964 75.8529 106.947 76.0869 106.921C76.3209 106.886 76.5159 106.843 76.6719 106.791C76.9839 106.678 77.2266 106.54 77.3999 106.375C77.5733 106.202 77.6946 105.976 77.7639 105.699C77.8419 105.413 77.8809 105.049 77.8809 104.607C77.8809 104.243 77.8333 103.905 77.7379 103.593C77.6426 103.281 77.5083 103.03 77.3349 102.839C77.1616 102.648 76.9536 102.553 76.7109 102.553C76.5116 102.553 76.3296 102.631 76.1649 102.787C76.0089 102.934 75.8833 103.125 75.7879 103.359C75.7013 103.593 75.6579 103.827 75.6579 104.061C75.6579 104.243 75.6926 104.399 75.7619 104.529C75.8399 104.659 75.9656 104.763 76.1389 104.841C76.3123 104.91 76.5376 104.945 76.8149 104.945C77.0663 104.945 77.3176 104.919 77.5689 104.867C77.8289 104.815 78.0499 104.746 78.2319 104.659L78.2839 105.569C78.1453 105.664 77.9893 105.742 77.8159 105.803C77.6426 105.864 77.4606 105.907 77.2699 105.933C77.0793 105.959 76.8886 105.972 76.6979 105.972C76.2559 105.972 75.8789 105.903 75.5669 105.764C75.2636 105.617 75.0296 105.422 74.8649 105.179C74.7089 104.928 74.6309 104.642 74.6309 104.321C74.6309 103.992 74.6829 103.662 74.7869 103.333C74.8909 102.995 75.0383 102.687 75.2289 102.41C75.4196 102.133 75.6493 101.912 75.9179 101.747C76.1866 101.574 76.4856 101.487 76.8149 101.487C77.2829 101.487 77.6686 101.639 77.9719 101.942C78.2839 102.245 78.5136 102.644 78.6609 103.138C78.8169 103.623 78.8949 104.139 78.8949 104.685C78.8949 105.335 78.7823 105.894 78.5569 106.362C78.3403 106.821 77.9763 107.203 77.4649 107.506C77.2656 107.619 77.0229 107.714 76.7369 107.792C76.4596 107.861 76.1519 107.918 75.8139 107.961C75.4846 108.004 75.1379 108.03 74.7739 108.039C74.4099 108.056 74.0416 108.065 73.6689 108.065ZM76.5679 100.148C76.3859 100.148 76.2299 100.087 76.0999 99.966C75.9786 99.836 75.9179 99.6843 75.9179 99.511C75.9179 99.3377 75.9786 99.186 76.0999 99.056C76.2299 98.926 76.3859 98.861 76.5679 98.861C76.7413 98.861 76.8886 98.926 77.0099 99.056C77.1399 99.186 77.2049 99.3377 77.2049 99.511C77.2049 99.6843 77.1399 99.836 77.0099 99.966C76.8886 100.087 76.7413 100.148 76.5679 100.148ZM79.1418 111.016L78.7648 110.028C79.3975 109.82 79.9218 109.582 80.3378 109.313C80.7625 109.044 81.0962 108.758 81.3388 108.455C81.5902 108.152 81.7678 107.844 81.8718 107.532C81.9758 107.211 82.0278 106.904 82.0278 106.609C82.0278 106.184 81.9325 105.755 81.7418 105.322C81.5598 104.88 81.3562 104.464 81.1308 104.074L82.0798 103.593C82.2445 103.896 82.3875 104.195 82.5088 104.49C82.6388 104.785 82.7515 105.062 82.8468 105.322C82.9508 105.582 83.0332 105.82 83.0938 106.037C83.2152 106.41 83.3712 106.665 83.5618 106.804C83.7612 106.934 84.0298 106.999 84.3678 106.999C84.5498 106.999 84.6798 107.051 84.7578 107.155C84.8445 107.25 84.8878 107.367 84.8878 107.506C84.8878 107.645 84.8272 107.775 84.7058 107.896C84.5845 108.009 84.4285 108.065 84.2378 108.065C83.8565 108.065 83.5445 108 83.3018 107.87C83.0678 107.731 82.8902 107.554 82.7688 107.337C82.6475 107.112 82.5652 106.878 82.5218 106.635L82.9378 106.869C82.9378 107.441 82.8078 107.961 82.5478 108.429C82.2965 108.906 81.9715 109.317 81.5728 109.664C81.1742 110.019 80.7582 110.31 80.3248 110.535C79.8915 110.76 79.4972 110.921 79.1418 111.016ZM84.2441 108.065L84.3741 106.999C84.8941 106.999 85.3838 106.951 85.8431 106.856C86.3025 106.752 86.7228 106.618 87.1041 106.453C87.4941 106.28 87.8278 106.085 88.1051 105.868C88.3825 105.643 88.5948 105.413 88.7421 105.179C88.8981 104.936 88.9761 104.698 88.9761 104.464C88.9761 104.351 88.9371 104.239 88.8591 104.126C88.7811 104.005 88.6468 103.905 88.4561 103.827C88.2741 103.749 88.0271 103.71 87.7151 103.71C87.5245 103.71 87.3121 103.736 87.0781 103.788C86.8441 103.84 86.6188 103.914 86.4021 104.009C86.1941 104.096 86.0208 104.195 85.8821 104.308C86.1161 104.499 86.3328 104.685 86.5321 104.867C86.7401 105.049 86.9525 105.248 87.1691 105.465C87.3858 105.673 87.6198 105.911 87.8711 106.18C88.0705 106.327 88.2915 106.453 88.5341 106.557C88.7855 106.661 89.0541 106.748 89.3401 106.817C89.6348 106.878 89.9338 106.925 90.2371 106.96C90.5405 106.986 90.8438 106.999 91.1471 106.999C91.3291 106.999 91.4591 107.051 91.5371 107.155C91.6238 107.25 91.6671 107.367 91.6671 107.506C91.6671 107.645 91.6065 107.775 91.4851 107.896C91.3638 108.009 91.2078 108.065 91.0171 108.065C90.5405 108.065 90.0508 108.022 89.5481 107.935C89.0541 107.84 88.5905 107.701 88.1571 107.519C87.7238 107.328 87.3555 107.09 87.0521 106.804C86.9048 106.613 86.7401 106.423 86.5581 106.232C86.3761 106.041 86.1768 105.851 85.9601 105.66C85.7521 105.461 85.5268 105.274 85.2841 105.101C85.2321 105.058 85.1801 104.98 85.1281 104.867C85.0761 104.754 85.0328 104.637 84.9981 104.516C84.9635 104.395 84.9461 104.304 84.9461 104.243C84.9461 104.113 85.0285 103.957 85.1931 103.775C85.3578 103.593 85.5788 103.42 85.8561 103.255C86.1335 103.082 86.4498 102.939 86.8051 102.826C87.1605 102.713 87.5288 102.657 87.9101 102.657C88.4041 102.657 88.8028 102.731 89.1061 102.878C89.4181 103.025 89.6435 103.216 89.7821 103.45C89.9295 103.675 90.0031 103.918 90.0031 104.178C90.0031 104.559 89.9078 104.941 89.7171 105.322C89.5265 105.695 89.2535 106.046 88.8981 106.375C88.5428 106.704 88.1268 106.999 87.6501 107.259C87.1735 107.51 86.6448 107.71 86.0641 107.857C85.4921 107.996 84.8855 108.065 84.2441 108.065ZM91.0234 108.065L91.1534 106.999C91.6648 106.999 92.0634 106.982 92.3494 106.947C92.6354 106.904 92.8391 106.804 92.9604 106.648C93.0818 106.483 93.1424 106.228 93.1424 105.881C93.1424 105.664 93.1078 105.409 93.0384 105.114C92.9691 104.811 92.8781 104.49 92.7654 104.152C92.6528 103.814 92.5314 103.48 92.4014 103.151L93.4544 102.761C93.5671 103.038 93.6711 103.355 93.7664 103.71C93.8704 104.065 93.9571 104.416 94.0264 104.763C94.0958 105.11 94.1304 105.413 94.1304 105.673C94.1304 106.106 94.0698 106.475 93.9484 106.778C93.8358 107.081 93.6538 107.328 93.4024 107.519C93.1511 107.71 92.8261 107.848 92.4274 107.935C92.0374 108.022 91.5694 108.065 91.0234 108.065ZM93.8574 101.409C93.6754 101.409 93.5194 101.348 93.3894 101.227C93.2681 101.097 93.2074 100.945 93.2074 100.772C93.2074 100.599 93.2681 100.447 93.3894 100.317C93.5194 100.187 93.6754 100.122 93.8574 100.122C94.0308 100.122 94.1781 100.187 94.2994 100.317C94.4294 100.447 94.4944 100.599 94.4944 100.772C94.4944 100.945 94.4294 101.097 94.2994 101.227C94.1781 101.348 94.0308 101.409 93.8574 101.409ZM92.0764 101.409C91.8944 101.409 91.7384 101.348 91.6084 101.227C91.4871 101.097 91.4264 100.945 91.4264 100.772C91.4264 100.599 91.4871 100.447 91.6084 100.317C91.7384 100.187 91.8944 100.122 92.0764 100.122C92.2498 100.122 92.3971 100.187 92.5184 100.317C92.6484 100.447 92.7134 100.599 92.7134 100.772C92.7134 100.945 92.6484 101.097 92.5184 101.227C92.3971 101.348 92.2498 101.409 92.0764 101.409Z" fill="#9D3E20"/>
<defs>
<clipPath id="clip0_173_563">
<rect width="55.8715" height="59.2941" fill="white" transform="translate(33.6396 18.353)"/>
</clipPath>
</defs>
</svg>
