<svg width="123" height="130" viewBox="0 0 123 130" fill="none" xmlns="http://www.w3.org/2000/svg">
<rect x="1.5" y="1.5" width="119.496" height="127" rx="8.5" fill="white" stroke="#9D3E20" stroke-width="3"/>
<path d="M66.6221 32.6067C65.9565 31.1939 64.2251 29.0541 61.2974 27.6654M61.2974 27.6654C59.1053 26.6257 56.2425 26.0071 52.6542 26.4302C42.1783 27.6655 39.8537 33.8414 39.8525 40.0179C39.8523 41.2532 39.8531 46.1944 41.0145 49.9006C44.2998 60.3849 45.6709 58.5473 47.9985 72.136C48.3865 74.6066 49.7349 82.8851 53.8185 82.0184C59.6384 80.7831 60.3203 56.5889 61.9664 54.8419C63.1304 53.6066 64.2944 64.7242 65.4584 69.6654C67.3707 77.7834 69.6747 82.9974 72.4423 82.0184C75.2099 81.0393 75.9346 73.3708 77.0986 68.4297C78.2626 56.0767 83.1772 49.9006 84.0825 41.2532C85.2465 30.1356 77.0986 27.3561 73.6066 26.4297C67.5255 24.8165 62.2964 26.8419 61.2974 27.6654Z" stroke="#9D3E20" stroke-width="3" stroke-linecap="round"/>
<path d="M39.8525 39.4116H56.1484V48.0587H70.1163V39.4116H84.0842" stroke="#9D3E20" stroke-width="3"/>
<path d="M44.0775 108.013C44.0775 107.805 44.0948 107.584 44.1295 107.35C44.1728 107.107 44.2335 106.852 44.3115 106.583C44.3982 106.306 44.5022 106.015 44.6235 105.712L45.5595 106.076C45.4728 106.319 45.3948 106.548 45.3255 106.765C45.2648 106.982 45.2172 107.185 45.1825 107.376C45.1565 107.567 45.1435 107.749 45.1435 107.922C45.1435 108.286 45.2215 108.594 45.3775 108.845C45.5422 109.105 45.7675 109.317 46.0535 109.482C46.3395 109.647 46.6645 109.768 47.0285 109.846C47.4012 109.924 47.7955 109.963 48.2115 109.963C48.7142 109.963 49.1822 109.92 49.6155 109.833C50.0575 109.746 50.4432 109.621 50.7725 109.456C51.1105 109.3 51.3748 109.118 51.5655 108.91C51.7562 108.711 51.8515 108.494 51.8515 108.26C51.8515 108.147 51.8082 108.043 51.7215 107.948C51.6348 107.853 51.5048 107.762 51.3315 107.675C51.1582 107.588 50.9502 107.506 50.7075 107.428C50.4648 107.341 50.1875 107.255 49.8755 107.168L50.1225 106.089C50.5732 106.262 50.9718 106.41 51.3185 106.531C51.6652 106.644 51.9685 106.735 52.2285 106.804C52.4885 106.873 52.7138 106.925 52.9045 106.96C53.0952 106.986 53.2555 106.999 53.3855 106.999C53.5675 106.999 53.6975 107.051 53.7755 107.155C53.8622 107.25 53.9055 107.367 53.9055 107.506C53.9055 107.645 53.8448 107.775 53.7235 107.896C53.6022 108.009 53.4462 108.065 53.2555 108.065C53.2035 108.065 53.1515 108.065 53.0995 108.065C53.0475 108.065 52.9912 108.065 52.9305 108.065C52.8785 108.065 52.8265 108.065 52.7745 108.065C52.7918 108.143 52.8048 108.204 52.8135 108.247C52.8222 108.299 52.8265 108.364 52.8265 108.442C52.8265 108.763 52.7138 109.075 52.4885 109.378C52.2718 109.681 51.9512 109.954 51.5265 110.197C51.1018 110.448 50.5862 110.648 49.9795 110.795C49.3815 110.942 48.6968 111.016 47.9255 111.016C47.2408 111.016 46.6038 110.903 46.0145 110.678C45.4338 110.461 44.9658 110.132 44.6105 109.69C44.2552 109.248 44.0775 108.689 44.0775 108.013ZM53.2598 108.065L53.3898 106.999C53.8144 106.999 54.1524 106.973 54.4038 106.921C54.6551 106.869 54.8371 106.765 54.9498 106.609C55.0624 106.444 55.1188 106.202 55.1188 105.881C55.1188 105.664 55.0841 105.409 55.0148 105.114C54.9454 104.811 54.8544 104.49 54.7418 104.152C54.6291 103.814 54.5078 103.48 54.3778 103.151L55.4308 102.761C55.5434 103.038 55.6474 103.355 55.7428 103.71C55.8468 104.065 55.9334 104.416 56.0028 104.763C56.0721 105.11 56.1068 105.413 56.1068 105.673C56.1068 106.02 56.0678 106.327 55.9898 106.596C55.9204 106.856 55.8121 107.081 55.6648 107.272C55.5174 107.454 55.3268 107.606 55.0928 107.727C54.8674 107.84 54.6031 107.926 54.2998 107.987C53.9964 108.039 53.6498 108.065 53.2598 108.065ZM54.9238 101.409C54.7418 101.409 54.5858 101.348 54.4558 101.227C54.3344 101.097 54.2738 100.945 54.2738 100.772C54.2738 100.599 54.3344 100.447 54.4558 100.317C54.5858 100.187 54.7418 100.122 54.9238 100.122C55.0971 100.122 55.2444 100.187 55.3658 100.317C55.4958 100.447 55.5608 100.599 55.5608 100.772C55.5608 100.945 55.4958 101.097 55.3658 101.227C55.2444 101.348 55.0971 101.409 54.9238 101.409ZM60.534 108.065C59.8406 108.065 59.3076 107.987 58.935 107.831C58.571 107.675 58.3196 107.432 58.181 107.103C58.0423 106.774 57.9643 106.349 57.947 105.829L57.687 98.718H58.753L59.013 105.413C59.0303 105.838 59.0693 106.167 59.13 106.401C59.1993 106.626 59.3466 106.782 59.572 106.869C59.806 106.956 60.17 106.999 60.664 106.999C60.846 106.999 60.976 107.051 61.054 107.155C61.1406 107.25 61.184 107.367 61.184 107.506C61.184 107.645 61.1233 107.775 61.002 107.896C60.8806 108.009 60.7246 108.065 60.534 108.065ZM60.5342 108.065L60.6642 106.999C60.9068 106.999 61.1105 106.947 61.2752 106.843C61.4398 106.739 61.6002 106.566 61.7562 106.323C61.9122 106.08 62.0812 105.755 62.2632 105.348C62.5145 104.793 62.7615 104.373 63.0042 104.087C63.2555 103.801 63.5025 103.606 63.7452 103.502C63.9965 103.398 64.2435 103.346 64.4862 103.346C64.7808 103.346 65.0538 103.424 65.3052 103.58C65.5565 103.727 65.7775 103.927 65.9682 104.178C66.1588 104.429 66.3062 104.707 66.4102 105.01C66.5228 105.305 66.5792 105.599 66.5792 105.894C66.5792 106.414 66.4882 106.83 66.3062 107.142C66.1242 107.445 65.8902 107.666 65.6042 107.805C65.3268 107.935 65.0365 108 64.7332 108C64.4645 108 64.1178 107.948 63.6932 107.844C63.2772 107.74 62.7485 107.476 62.1072 107.051L62.6142 106.232C63.0388 106.501 63.4202 106.687 63.7582 106.791C64.1048 106.886 64.3908 106.934 64.6162 106.934C64.8675 106.934 65.0668 106.899 65.2142 106.83C65.3615 106.752 65.4698 106.644 65.5392 106.505C65.6085 106.366 65.6432 106.21 65.6432 106.037C65.6432 105.786 65.5825 105.534 65.4612 105.283C65.3398 105.032 65.1838 104.824 64.9932 104.659C64.8112 104.494 64.6162 104.412 64.4082 104.412C64.2522 104.412 64.1005 104.455 63.9532 104.542C63.8058 104.629 63.6542 104.789 63.4982 105.023C63.3422 105.257 63.1645 105.595 62.9652 106.037C62.7572 106.505 62.5578 106.878 62.3672 107.155C62.1852 107.424 61.9988 107.623 61.8082 107.753C61.6175 107.883 61.4182 107.965 61.2102 108C61.0108 108.043 60.7855 108.065 60.5342 108.065ZM66.8958 110.99L66.5187 110.002C67.3941 109.725 68.0658 109.391 68.5338 109.001C69.0104 108.62 69.3354 108.221 69.5088 107.805C69.6908 107.389 69.7818 106.99 69.7818 106.609C69.7818 106.366 69.7558 106.132 69.7038 105.907C69.6518 105.682 69.5608 105.426 69.4308 105.14C69.3008 104.854 69.1188 104.499 68.8848 104.074L69.8338 103.593C70.1631 104.156 70.3971 104.689 70.5358 105.192C70.6831 105.695 70.7568 106.137 70.7568 106.518C70.7568 107.064 70.6658 107.558 70.4838 108C70.3104 108.442 70.0764 108.832 69.7818 109.17C69.4958 109.517 69.1794 109.811 68.8328 110.054C68.4948 110.297 68.1524 110.496 67.8058 110.652C67.4678 110.808 67.1644 110.921 66.8958 110.99ZM72.0722 107.415L72.5922 106.518C72.7655 106.631 73.0082 106.739 73.3202 106.843C73.6322 106.947 73.9962 106.999 74.4122 106.999C74.8455 106.999 75.1879 106.956 75.4392 106.869C75.6992 106.782 75.8855 106.657 75.9982 106.492C76.1195 106.319 76.1802 106.119 76.1802 105.894C76.1802 105.721 76.1412 105.508 76.0632 105.257C75.9939 104.997 75.8379 104.65 75.5952 104.217C75.3525 103.775 74.9799 103.199 74.4772 102.488L75.3742 101.903C75.8335 102.536 76.1975 103.108 76.4662 103.619C76.7435 104.13 76.9385 104.581 77.0512 104.971C77.1725 105.352 77.2332 105.682 77.2332 105.959C77.2332 106.306 77.1465 106.644 76.9732 106.973C76.7999 107.294 76.5095 107.558 76.1022 107.766C75.6949 107.974 75.1315 108.078 74.4122 108.078C74.1002 108.078 73.7969 108.052 73.5022 108C73.2162 107.948 72.9519 107.874 72.7092 107.779C72.4665 107.675 72.2542 107.554 72.0722 107.415Z" fill="#9D3E20"/>
</svg>
