<svg width="54" height="66" viewBox="0 0 54 66" fill="none" xmlns="http://www.w3.org/2000/svg">
<path d="M27 19.6309C24.8393 19.6309 22.8086 20.4691 21.2766 22.0012C20.5237 22.7519 19.9267 23.644 19.5199 24.6262C19.1132 25.6085 18.9046 26.6615 18.9062 27.7246C18.9062 29.8853 19.7518 31.916 21.2766 33.448C22.0272 34.2009 22.9194 34.7979 23.9016 35.2047C24.8839 35.6114 25.9369 35.82 27 35.8184C29.1607 35.8184 31.1914 34.9729 32.7234 33.448C34.2555 31.916 35.0938 29.8853 35.0938 27.7246C35.0938 25.5639 34.2555 23.5332 32.7234 22.0012C31.1914 20.4691 29.1607 19.6309 27 19.6309ZM51.7582 16.892C50.3977 13.7548 48.4361 10.9143 45.9842 8.53086C43.5242 6.12586 40.6241 4.21702 37.4424 2.90859C34.1326 1.53555 30.6205 0.841797 27 0.841797C23.3795 0.841797 19.8674 1.53555 16.5576 2.90137C13.3562 4.22383 10.4873 6.11719 8.01582 8.52363C5.56546 10.9084 3.60412 13.7486 2.2418 16.8848C0.832617 20.1367 0.117188 23.591 0.117188 27.1465C0.117188 32.2484 1.33848 37.3287 3.7377 42.2283C5.66719 46.1668 8.3627 50.0041 11.7592 53.6535C17.5621 59.8828 23.6469 63.6912 25.374 64.7101C25.8643 64.9997 26.4234 65.152 26.9928 65.151C27.5564 65.151 28.1129 65.0064 28.6115 64.7101C30.3387 63.6912 36.4234 59.8828 42.2264 53.6535C45.6229 50.0113 48.3184 46.1668 50.2479 42.2283C52.6615 37.3359 53.8828 32.2629 53.8828 27.1537C53.8828 23.5982 53.1674 20.1439 51.7582 16.892ZM27 40.4434C19.9758 40.4434 14.2812 34.7488 14.2812 27.7246C14.2812 20.7004 19.9758 15.0059 27 15.0059C34.0242 15.0059 39.7188 20.7004 39.7188 27.7246C39.7188 34.7488 34.0242 40.4434 27 40.4434Z" fill="#9D3E20"/>
</svg>
